G75*
%MOIN*%
%OFA0B0*%
%FSLAX25Y25*%
%IPPOS*%
%LPD*%
%AMOC8*
5,1,8,0,0,1.08239X$1,22.5*
%
%ADD10R,0.06000X0.29000*%
%ADD11R,0.06000X0.25000*%
%ADD12OC8,0.06300*%
%ADD13R,0.05250X0.05250*%
%ADD14C,0.01000*%
%ADD15C,0.02000*%
%ADD16C,0.06000*%
D10*
X0110500Y0020500D03*
X0120500Y0020500D03*
X0130500Y0020500D03*
X0150500Y0020500D03*
X0160500Y0020500D03*
X0170500Y0020500D03*
X0180500Y0020500D03*
X0190500Y0020500D03*
X0200500Y0020500D03*
X0210500Y0020500D03*
X0220500Y0020500D03*
X0230500Y0020500D03*
X0240500Y0020500D03*
X0250500Y0020500D03*
X0260500Y0020500D03*
X0270500Y0020500D03*
X0280500Y0020500D03*
X0290500Y0020500D03*
X0300500Y0020500D03*
X0310500Y0020500D03*
X0320500Y0020500D03*
X0330500Y0020500D03*
X0340500Y0020500D03*
X0350500Y0020500D03*
D11*
X0140500Y0022500D03*
D12*
X0140500Y0065000D03*
X0150500Y0065000D03*
X0160500Y0065000D03*
X0170500Y0065000D03*
X0180500Y0065000D03*
X0190500Y0065000D03*
X0200500Y0065000D03*
X0210500Y0065000D03*
X0220500Y0065000D03*
X0230500Y0065000D03*
X0240500Y0065000D03*
X0250500Y0065000D03*
X0260500Y0065000D03*
X0270500Y0065000D03*
X0280500Y0065000D03*
X0290500Y0065000D03*
X0300500Y0065000D03*
X0310500Y0065000D03*
X0320500Y0065000D03*
X0330500Y0065000D03*
X0340500Y0065000D03*
X0350500Y0065000D03*
X0350500Y0085000D03*
X0340500Y0085000D03*
X0330500Y0085000D03*
X0320500Y0085000D03*
X0310500Y0085000D03*
X0300500Y0085000D03*
X0290500Y0085000D03*
X0280500Y0085000D03*
X0270500Y0085000D03*
X0260500Y0085000D03*
X0250500Y0085000D03*
X0240500Y0085000D03*
X0230500Y0085000D03*
X0220500Y0085000D03*
X0210500Y0085000D03*
X0200500Y0085000D03*
X0190500Y0085000D03*
X0180500Y0085000D03*
X0170500Y0085000D03*
X0160500Y0085000D03*
X0150500Y0085000D03*
X0140500Y0085000D03*
X0130500Y0085000D03*
X0120500Y0085000D03*
X0110500Y0085000D03*
X0110500Y0065000D03*
X0120500Y0065000D03*
X0130500Y0065000D03*
D13*
X0030500Y0115000D03*
X0030500Y0125000D03*
X0030500Y0135000D03*
X0030500Y0145000D03*
X0030500Y0155000D03*
X0030500Y0165000D03*
X0030500Y0175000D03*
X0030500Y0185000D03*
X0030500Y0195000D03*
X0030500Y0205000D03*
X0030500Y0215000D03*
X0030500Y0225000D03*
X0030500Y0235000D03*
X0030500Y0245000D03*
X0030500Y0255000D03*
X0030500Y0265000D03*
X0030500Y0275000D03*
X0030500Y0285000D03*
X0030500Y0295000D03*
X0030500Y0305000D03*
X0030500Y0315000D03*
X0030500Y0325000D03*
X0030500Y0335000D03*
X0030500Y0345000D03*
X0030500Y0355000D03*
X0030500Y0365000D03*
X0030500Y0375000D03*
X0030500Y0385000D03*
X0030500Y0395000D03*
X0030500Y0405000D03*
X0030500Y0415000D03*
X0030500Y0425000D03*
X0030500Y0435000D03*
X0030500Y0445000D03*
X0030500Y0455000D03*
X0390500Y0455000D03*
X0390500Y0445000D03*
X0390500Y0435000D03*
X0390500Y0425000D03*
X0390500Y0415000D03*
X0390500Y0405000D03*
X0390500Y0395000D03*
X0390500Y0385000D03*
X0390500Y0375000D03*
X0390500Y0365000D03*
X0390500Y0355000D03*
X0390500Y0345000D03*
X0390500Y0335000D03*
X0390500Y0325000D03*
X0390500Y0315000D03*
X0390500Y0305000D03*
X0390500Y0295000D03*
X0390500Y0285000D03*
X0390500Y0275000D03*
X0390500Y0265000D03*
X0390500Y0255000D03*
X0390500Y0245000D03*
X0390500Y0235000D03*
X0390500Y0225000D03*
X0390500Y0215000D03*
X0390500Y0205000D03*
X0390500Y0195000D03*
X0390500Y0185000D03*
X0390500Y0175000D03*
X0390500Y0165000D03*
X0390500Y0155000D03*
X0390500Y0145000D03*
X0390500Y0135000D03*
X0390500Y0125000D03*
X0390500Y0115000D03*
D14*
X0350500Y0065000D02*
X0350500Y0020500D01*
X0340500Y0020500D02*
X0340500Y0065000D01*
X0330500Y0065000D02*
X0330500Y0020500D01*
X0320500Y0020500D02*
X0320500Y0065000D01*
X0310500Y0065000D02*
X0310500Y0020500D01*
X0300500Y0020500D02*
X0300500Y0065000D01*
X0290500Y0065000D02*
X0290500Y0020500D01*
X0280500Y0020500D02*
X0280500Y0065000D01*
X0270500Y0065000D02*
X0270500Y0020500D01*
X0260500Y0020500D02*
X0260500Y0065000D01*
X0250500Y0065000D02*
X0250500Y0020500D01*
X0240500Y0020500D02*
X0240500Y0065000D01*
X0230500Y0065000D02*
X0230500Y0020500D01*
X0220500Y0020500D02*
X0220500Y0065000D01*
X0210500Y0065000D02*
X0210500Y0025551D01*
X0211051Y0025000D01*
X0200500Y0020500D02*
X0200500Y0065000D01*
X0190500Y0065000D02*
X0190500Y0020500D01*
X0180500Y0020500D02*
X0180500Y0065000D01*
X0170500Y0065000D02*
X0170500Y0020500D01*
X0160500Y0020500D02*
X0160500Y0065000D01*
X0150500Y0065000D02*
X0150500Y0020500D01*
X0140500Y0022500D02*
X0140500Y0065000D01*
X0130500Y0065000D02*
X0130500Y0020500D01*
D15*
X0120500Y0020500D02*
X0120500Y0065000D01*
X0110500Y0065000D02*
X0110500Y0020500D01*
D16*
X0110500Y0115000D03*
X0110500Y0125000D03*
X0110500Y0135000D03*
X0110500Y0145000D03*
X0110500Y0155000D03*
X0110500Y0165000D03*
X0110500Y0175000D03*
X0110500Y0185000D03*
X0110500Y0195000D03*
X0110500Y0205000D03*
X0110500Y0215000D03*
X0110500Y0225000D03*
X0110500Y0235000D03*
X0110500Y0245000D03*
X0110500Y0255000D03*
X0110500Y0265000D03*
X0110500Y0275000D03*
X0110500Y0285000D03*
X0110500Y0295000D03*
X0110500Y0305000D03*
X0110500Y0315000D03*
X0110500Y0325000D03*
X0110500Y0335000D03*
X0110500Y0345000D03*
X0110500Y0355000D03*
X0110500Y0365000D03*
X0110500Y0375000D03*
X0110500Y0385000D03*
X0110500Y0395000D03*
X0110500Y0405000D03*
X0110500Y0415000D03*
X0110500Y0425000D03*
X0110500Y0435000D03*
X0110500Y0445000D03*
X0110500Y0455000D03*
X0120500Y0455000D03*
X0120500Y0445000D03*
X0120500Y0435000D03*
X0120500Y0425000D03*
X0120500Y0415000D03*
X0120500Y0405000D03*
X0120500Y0395000D03*
X0120500Y0385000D03*
X0120500Y0375000D03*
X0120500Y0365000D03*
X0120500Y0355000D03*
X0120500Y0345000D03*
X0120500Y0335000D03*
X0120500Y0325000D03*
X0120500Y0315000D03*
X0120500Y0305000D03*
X0120500Y0295000D03*
X0120500Y0285000D03*
X0120500Y0275000D03*
X0120500Y0265000D03*
X0120500Y0255000D03*
X0120500Y0245000D03*
X0120500Y0235000D03*
X0120500Y0225000D03*
X0120500Y0215000D03*
X0120500Y0205000D03*
X0120500Y0195000D03*
X0120500Y0185000D03*
X0120500Y0175000D03*
X0120500Y0165000D03*
X0120500Y0155000D03*
X0120500Y0145000D03*
X0120500Y0135000D03*
X0120500Y0125000D03*
X0120500Y0115000D03*
X0130500Y0115000D03*
X0130500Y0125000D03*
X0130500Y0135000D03*
X0130500Y0145000D03*
X0130500Y0155000D03*
X0130500Y0165000D03*
X0130500Y0175000D03*
X0130500Y0185000D03*
X0130500Y0195000D03*
X0130500Y0205000D03*
X0130500Y0215000D03*
X0130500Y0225000D03*
X0130500Y0235000D03*
X0130500Y0245000D03*
X0130500Y0255000D03*
X0130500Y0265000D03*
X0130500Y0275000D03*
X0130500Y0285000D03*
X0130500Y0295000D03*
X0130500Y0305000D03*
X0130500Y0315000D03*
X0130500Y0325000D03*
X0130500Y0335000D03*
X0130500Y0345000D03*
X0130500Y0355000D03*
X0130500Y0365000D03*
X0130500Y0375000D03*
X0130500Y0385000D03*
X0130500Y0395000D03*
X0130500Y0405000D03*
X0130500Y0415000D03*
X0130500Y0425000D03*
X0130500Y0435000D03*
X0130500Y0445000D03*
X0130500Y0455000D03*
X0140500Y0455000D03*
X0140500Y0445000D03*
X0140500Y0435000D03*
X0140500Y0425000D03*
X0140500Y0415000D03*
X0140500Y0405000D03*
X0140500Y0395000D03*
X0140500Y0385000D03*
X0140500Y0375000D03*
X0140500Y0365000D03*
X0140500Y0355000D03*
X0140500Y0345000D03*
X0140500Y0335000D03*
X0140500Y0325000D03*
X0140500Y0315000D03*
X0140500Y0305000D03*
X0140500Y0295000D03*
X0140500Y0285000D03*
X0140500Y0275000D03*
X0140500Y0265000D03*
X0140500Y0255000D03*
X0140500Y0245000D03*
X0140500Y0235000D03*
X0140500Y0225000D03*
X0140500Y0215000D03*
X0140500Y0205000D03*
X0140500Y0195000D03*
X0140500Y0185000D03*
X0140500Y0175000D03*
X0140500Y0165000D03*
X0140500Y0155000D03*
X0140500Y0145000D03*
X0140500Y0135000D03*
X0140500Y0125000D03*
X0140500Y0115000D03*
X0150500Y0115000D03*
X0150500Y0125000D03*
X0150500Y0135000D03*
X0150500Y0145000D03*
X0150500Y0155000D03*
X0150500Y0165000D03*
X0150500Y0175000D03*
X0150500Y0185000D03*
X0150500Y0195000D03*
X0150500Y0205000D03*
X0150500Y0215000D03*
X0150500Y0225000D03*
X0150500Y0235000D03*
X0150500Y0245000D03*
X0150500Y0255000D03*
X0150500Y0265000D03*
X0150500Y0275000D03*
X0150500Y0285000D03*
X0150500Y0295000D03*
X0150500Y0305000D03*
X0150500Y0315000D03*
X0150500Y0325000D03*
X0150500Y0335000D03*
X0150500Y0345000D03*
X0150500Y0355000D03*
X0150500Y0365000D03*
X0150500Y0375000D03*
X0150500Y0385000D03*
X0150500Y0395000D03*
X0150500Y0405000D03*
X0150500Y0415000D03*
X0150500Y0425000D03*
X0150500Y0435000D03*
X0150500Y0445000D03*
X0150500Y0455000D03*
X0160500Y0455000D03*
X0160500Y0445000D03*
X0160500Y0435000D03*
X0160500Y0425000D03*
X0160500Y0415000D03*
X0160500Y0405000D03*
X0160500Y0395000D03*
X0160500Y0385000D03*
X0160500Y0375000D03*
X0160500Y0365000D03*
X0160500Y0355000D03*
X0160500Y0345000D03*
X0160500Y0335000D03*
X0160500Y0325000D03*
X0160500Y0315000D03*
X0160500Y0305000D03*
X0160500Y0295000D03*
X0160500Y0285000D03*
X0160500Y0275000D03*
X0160500Y0265000D03*
X0160500Y0255000D03*
X0160500Y0245000D03*
X0160500Y0235000D03*
X0160500Y0225000D03*
X0160500Y0215000D03*
X0160500Y0205000D03*
X0160500Y0195000D03*
X0160500Y0185000D03*
X0160500Y0175000D03*
X0160500Y0165000D03*
X0160500Y0155000D03*
X0160500Y0145000D03*
X0160500Y0135000D03*
X0160500Y0125000D03*
X0160500Y0115000D03*
X0170500Y0115000D03*
X0170500Y0125000D03*
X0170500Y0135000D03*
X0170500Y0145000D03*
X0170500Y0155000D03*
X0170500Y0165000D03*
X0170500Y0175000D03*
X0170500Y0185000D03*
X0170500Y0195000D03*
X0170500Y0205000D03*
X0170500Y0215000D03*
X0170500Y0225000D03*
X0170500Y0235000D03*
X0170500Y0245000D03*
X0170500Y0255000D03*
X0170500Y0265000D03*
X0170500Y0275000D03*
X0170500Y0285000D03*
X0170500Y0295000D03*
X0170500Y0305000D03*
X0170500Y0315000D03*
X0170500Y0325000D03*
X0170500Y0335000D03*
X0170500Y0345000D03*
X0170500Y0355000D03*
X0170500Y0365000D03*
X0170500Y0375000D03*
X0170500Y0385000D03*
X0170500Y0395000D03*
X0170500Y0405000D03*
X0170500Y0415000D03*
X0170500Y0425000D03*
X0170500Y0435000D03*
X0170500Y0445000D03*
X0170500Y0455000D03*
X0180500Y0455000D03*
X0180500Y0445000D03*
X0180500Y0435000D03*
X0180500Y0425000D03*
X0180500Y0415000D03*
X0180500Y0405000D03*
X0180500Y0395000D03*
X0180500Y0385000D03*
X0180500Y0375000D03*
X0180500Y0365000D03*
X0180500Y0355000D03*
X0180500Y0345000D03*
X0180500Y0335000D03*
X0180500Y0325000D03*
X0180500Y0315000D03*
X0180500Y0305000D03*
X0180500Y0295000D03*
X0180500Y0285000D03*
X0180500Y0275000D03*
X0180500Y0265000D03*
X0180500Y0255000D03*
X0180500Y0245000D03*
X0180500Y0235000D03*
X0180500Y0225000D03*
X0180500Y0215000D03*
X0180500Y0205000D03*
X0180500Y0195000D03*
X0180500Y0185000D03*
X0180500Y0175000D03*
X0180500Y0165000D03*
X0180500Y0155000D03*
X0180500Y0145000D03*
X0180500Y0135000D03*
X0180500Y0125000D03*
X0180500Y0115000D03*
X0190500Y0115000D03*
X0190500Y0125000D03*
X0190500Y0135000D03*
X0190500Y0145000D03*
X0190500Y0155000D03*
X0190500Y0165000D03*
X0190500Y0175000D03*
X0190500Y0185000D03*
X0190500Y0195000D03*
X0190500Y0205000D03*
X0190500Y0215000D03*
X0190500Y0225000D03*
X0190500Y0235000D03*
X0190500Y0245000D03*
X0190500Y0255000D03*
X0190500Y0265000D03*
X0190500Y0275000D03*
X0190500Y0285000D03*
X0190500Y0295000D03*
X0190500Y0305000D03*
X0190500Y0315000D03*
X0190500Y0325000D03*
X0190500Y0335000D03*
X0190500Y0345000D03*
X0190500Y0355000D03*
X0190500Y0365000D03*
X0190500Y0375000D03*
X0190500Y0385000D03*
X0190500Y0395000D03*
X0190500Y0405000D03*
X0190500Y0415000D03*
X0190500Y0425000D03*
X0190500Y0435000D03*
X0190500Y0445000D03*
X0190500Y0455000D03*
X0200500Y0455000D03*
X0200500Y0445000D03*
X0200500Y0435000D03*
X0200500Y0425000D03*
X0200500Y0415000D03*
X0200500Y0405000D03*
X0200500Y0395000D03*
X0200500Y0385000D03*
X0200500Y0375000D03*
X0200500Y0365000D03*
X0200500Y0355000D03*
X0200500Y0345000D03*
X0200500Y0335000D03*
X0200500Y0325000D03*
X0200500Y0315000D03*
X0200500Y0305000D03*
X0200500Y0295000D03*
X0200500Y0285000D03*
X0200500Y0275000D03*
X0200500Y0265000D03*
X0200500Y0255000D03*
X0200500Y0245000D03*
X0200500Y0235000D03*
X0200500Y0225000D03*
X0200500Y0215000D03*
X0200500Y0205000D03*
X0200500Y0195000D03*
X0200500Y0185000D03*
X0200500Y0175000D03*
X0200500Y0165000D03*
X0200500Y0155000D03*
X0200500Y0145000D03*
X0200500Y0135000D03*
X0200500Y0125000D03*
X0200500Y0115000D03*
X0210500Y0115000D03*
X0210500Y0125000D03*
X0210500Y0135000D03*
X0210500Y0145000D03*
X0210500Y0155000D03*
X0210500Y0165000D03*
X0210500Y0175000D03*
X0210500Y0185000D03*
X0210500Y0195000D03*
X0210500Y0205000D03*
X0210500Y0215000D03*
X0210500Y0225000D03*
X0210500Y0235000D03*
X0210500Y0245000D03*
X0210500Y0255000D03*
X0210500Y0265000D03*
X0210500Y0275000D03*
X0210500Y0285000D03*
X0210500Y0295000D03*
X0210500Y0305000D03*
X0210500Y0315000D03*
X0210500Y0325000D03*
X0210500Y0335000D03*
X0210500Y0345000D03*
X0210500Y0355000D03*
X0210500Y0365000D03*
X0210500Y0375000D03*
X0210500Y0385000D03*
X0210500Y0395000D03*
X0210500Y0405000D03*
X0210500Y0415000D03*
X0210500Y0425000D03*
X0210500Y0435000D03*
X0210500Y0445000D03*
X0210500Y0455000D03*
X0220500Y0455000D03*
X0220500Y0445000D03*
X0220500Y0435000D03*
X0220500Y0425000D03*
X0220500Y0415000D03*
X0220500Y0405000D03*
X0220500Y0395000D03*
X0220500Y0385000D03*
X0220500Y0375000D03*
X0220500Y0365000D03*
X0220500Y0355000D03*
X0220500Y0345000D03*
X0220500Y0335000D03*
X0220500Y0325000D03*
X0220500Y0315000D03*
X0220500Y0305000D03*
X0220500Y0295000D03*
X0220500Y0285000D03*
X0220500Y0275000D03*
X0220500Y0265000D03*
X0220500Y0255000D03*
X0220500Y0245000D03*
X0220500Y0235000D03*
X0220500Y0225000D03*
X0220500Y0215000D03*
X0220500Y0205000D03*
X0220500Y0195000D03*
X0220500Y0185000D03*
X0220500Y0175000D03*
X0220500Y0165000D03*
X0220500Y0155000D03*
X0220500Y0145000D03*
X0220500Y0135000D03*
X0220500Y0125000D03*
X0220500Y0115000D03*
X0230500Y0115000D03*
X0230500Y0125000D03*
X0230500Y0135000D03*
X0230500Y0145000D03*
X0230500Y0155000D03*
X0230500Y0165000D03*
X0230500Y0175000D03*
X0230500Y0185000D03*
X0230500Y0195000D03*
X0230500Y0205000D03*
X0230500Y0215000D03*
X0230500Y0225000D03*
X0230500Y0235000D03*
X0230500Y0245000D03*
X0230500Y0255000D03*
X0230500Y0265000D03*
X0230500Y0275000D03*
X0230500Y0285000D03*
X0230500Y0295000D03*
X0230500Y0305000D03*
X0230500Y0315000D03*
X0230500Y0325000D03*
X0230500Y0335000D03*
X0230500Y0345000D03*
X0230500Y0355000D03*
X0230500Y0365000D03*
X0230500Y0375000D03*
X0230500Y0385000D03*
X0230500Y0395000D03*
X0230500Y0405000D03*
X0230500Y0415000D03*
X0230500Y0425000D03*
X0230500Y0435000D03*
X0230500Y0445000D03*
X0230500Y0455000D03*
X0240500Y0455000D03*
X0240500Y0445000D03*
X0240500Y0435000D03*
X0240500Y0425000D03*
X0240500Y0415000D03*
X0240500Y0405000D03*
X0240500Y0395000D03*
X0240500Y0385000D03*
X0240500Y0375000D03*
X0240500Y0365000D03*
X0240500Y0355000D03*
X0240500Y0345000D03*
X0240500Y0335000D03*
X0240500Y0325000D03*
X0240500Y0315000D03*
X0240500Y0305000D03*
X0240500Y0295000D03*
X0240500Y0285000D03*
X0240500Y0275000D03*
X0240500Y0265000D03*
X0240500Y0255000D03*
X0240500Y0245000D03*
X0240500Y0235000D03*
X0240500Y0225000D03*
X0240500Y0215000D03*
X0240500Y0205000D03*
X0240500Y0195000D03*
X0240500Y0185000D03*
X0240500Y0175000D03*
X0240500Y0165000D03*
X0240500Y0155000D03*
X0240500Y0145000D03*
X0240500Y0135000D03*
X0240500Y0125000D03*
X0240500Y0115000D03*
X0250500Y0115000D03*
X0250500Y0125000D03*
X0250500Y0135000D03*
X0250500Y0145000D03*
X0250500Y0155000D03*
X0250500Y0165000D03*
X0250500Y0175000D03*
X0250500Y0185000D03*
X0250500Y0195000D03*
X0250500Y0205000D03*
X0250500Y0215000D03*
X0250500Y0225000D03*
X0250500Y0235000D03*
X0250500Y0245000D03*
X0250500Y0255000D03*
X0250500Y0265000D03*
X0250500Y0275000D03*
X0250500Y0285000D03*
X0250500Y0295000D03*
X0250500Y0305000D03*
X0250500Y0315000D03*
X0250500Y0325000D03*
X0250500Y0335000D03*
X0250500Y0345000D03*
X0250500Y0355000D03*
X0250500Y0365000D03*
X0250500Y0375000D03*
X0250500Y0385000D03*
X0250500Y0395000D03*
X0250500Y0405000D03*
X0250500Y0415000D03*
X0250500Y0425000D03*
X0250500Y0435000D03*
X0250500Y0445000D03*
X0250500Y0455000D03*
X0260500Y0455000D03*
X0260500Y0445000D03*
X0260500Y0435000D03*
X0260500Y0425000D03*
X0260500Y0415000D03*
X0260500Y0405000D03*
X0260500Y0395000D03*
X0260500Y0385000D03*
X0260500Y0375000D03*
X0260500Y0365000D03*
X0260500Y0355000D03*
X0260500Y0345000D03*
X0260500Y0335000D03*
X0260500Y0325000D03*
X0260500Y0315000D03*
X0260500Y0305000D03*
X0260500Y0295000D03*
X0260500Y0285000D03*
X0260500Y0275000D03*
X0260500Y0265000D03*
X0260500Y0255000D03*
X0260500Y0245000D03*
X0260500Y0235000D03*
X0260500Y0225000D03*
X0260500Y0215000D03*
X0260500Y0205000D03*
X0260500Y0195000D03*
X0260500Y0185000D03*
X0260500Y0175000D03*
X0260500Y0165000D03*
X0260500Y0155000D03*
X0260500Y0145000D03*
X0260500Y0135000D03*
X0260500Y0125000D03*
X0260500Y0115000D03*
X0270500Y0115000D03*
X0270500Y0125000D03*
X0270500Y0135000D03*
X0270500Y0145000D03*
X0270500Y0155000D03*
X0270500Y0165000D03*
X0270500Y0175000D03*
X0270500Y0185000D03*
X0270500Y0195000D03*
X0270500Y0205000D03*
X0270500Y0215000D03*
X0270500Y0225000D03*
X0270500Y0235000D03*
X0270500Y0245000D03*
X0270500Y0255000D03*
X0270500Y0265000D03*
X0270500Y0275000D03*
X0270500Y0285000D03*
X0270500Y0295000D03*
X0270500Y0305000D03*
X0270500Y0315000D03*
X0270500Y0325000D03*
X0270500Y0335000D03*
X0270500Y0345000D03*
X0270500Y0355000D03*
X0270500Y0365000D03*
X0270500Y0375000D03*
X0270500Y0385000D03*
X0270500Y0395000D03*
X0270500Y0405000D03*
X0270500Y0415000D03*
X0270500Y0425000D03*
X0270500Y0435000D03*
X0270500Y0445000D03*
X0270500Y0455000D03*
X0280500Y0455000D03*
X0280500Y0445000D03*
X0280500Y0435000D03*
X0280500Y0425000D03*
X0280500Y0415000D03*
X0280500Y0405000D03*
X0280500Y0395000D03*
X0280500Y0385000D03*
X0280500Y0375000D03*
X0280500Y0365000D03*
X0280500Y0355000D03*
X0280500Y0345000D03*
X0280500Y0335000D03*
X0280500Y0325000D03*
X0280500Y0315000D03*
X0280500Y0305000D03*
X0280500Y0295000D03*
X0280500Y0285000D03*
X0280500Y0275000D03*
X0280500Y0265000D03*
X0280500Y0255000D03*
X0280500Y0245000D03*
X0280500Y0235000D03*
X0280500Y0225000D03*
X0280500Y0215000D03*
X0280500Y0205000D03*
X0280500Y0195000D03*
X0280500Y0185000D03*
X0280500Y0175000D03*
X0280500Y0165000D03*
X0280500Y0155000D03*
X0280500Y0145000D03*
X0280500Y0135000D03*
X0280500Y0125000D03*
X0280500Y0115000D03*
X0290500Y0115000D03*
X0290500Y0125000D03*
X0290500Y0135000D03*
X0290500Y0145000D03*
X0290500Y0155000D03*
X0290500Y0165000D03*
X0290500Y0175000D03*
X0290500Y0185000D03*
X0290500Y0195000D03*
X0290500Y0205000D03*
X0290500Y0215000D03*
X0290500Y0225000D03*
X0290500Y0235000D03*
X0290500Y0245000D03*
X0290500Y0255000D03*
X0290500Y0265000D03*
X0290500Y0275000D03*
X0290500Y0285000D03*
X0290500Y0295000D03*
X0290500Y0305000D03*
X0290500Y0315000D03*
X0290500Y0325000D03*
X0290500Y0335000D03*
X0290500Y0345000D03*
X0290500Y0355000D03*
X0290500Y0365000D03*
X0290500Y0375000D03*
X0290500Y0385000D03*
X0290500Y0395000D03*
X0290500Y0405000D03*
X0290500Y0415000D03*
X0290500Y0425000D03*
X0290500Y0435000D03*
X0290500Y0445000D03*
X0290500Y0455000D03*
X0300500Y0455000D03*
X0300500Y0445000D03*
X0300500Y0435000D03*
X0300500Y0425000D03*
X0300500Y0415000D03*
X0300500Y0405000D03*
X0300500Y0395000D03*
X0300500Y0385000D03*
X0300500Y0375000D03*
X0300500Y0365000D03*
X0300500Y0355000D03*
X0300500Y0345000D03*
X0300500Y0335000D03*
X0300500Y0325000D03*
X0300500Y0315000D03*
X0300500Y0305000D03*
X0300500Y0295000D03*
X0300500Y0285000D03*
X0300500Y0275000D03*
X0300500Y0265000D03*
X0300500Y0255000D03*
X0300500Y0245000D03*
X0300500Y0235000D03*
X0300500Y0225000D03*
X0300500Y0215000D03*
X0300500Y0205000D03*
X0300500Y0195000D03*
X0300500Y0185000D03*
X0300500Y0175000D03*
X0300500Y0165000D03*
X0300500Y0155000D03*
X0300500Y0145000D03*
X0300500Y0135000D03*
X0300500Y0125000D03*
X0300500Y0115000D03*
X0310500Y0115000D03*
X0310500Y0125000D03*
X0310500Y0135000D03*
X0310500Y0145000D03*
X0310500Y0155000D03*
X0310500Y0165000D03*
X0310500Y0175000D03*
X0310500Y0185000D03*
X0310500Y0195000D03*
X0310500Y0205000D03*
X0310500Y0215000D03*
X0310500Y0225000D03*
X0310500Y0235000D03*
X0310500Y0245000D03*
X0310500Y0255000D03*
X0310500Y0265000D03*
X0310500Y0275000D03*
X0310500Y0285000D03*
X0310500Y0295000D03*
X0310500Y0305000D03*
X0310500Y0315000D03*
X0310500Y0325000D03*
X0310500Y0335000D03*
X0310500Y0345000D03*
X0310500Y0355000D03*
X0310500Y0365000D03*
X0310500Y0375000D03*
X0310500Y0385000D03*
X0310500Y0395000D03*
X0310500Y0405000D03*
X0310500Y0415000D03*
X0310500Y0425000D03*
X0310500Y0435000D03*
X0310500Y0445000D03*
X0310500Y0455000D03*
X0320500Y0455000D03*
X0320500Y0445000D03*
X0320500Y0435000D03*
X0320500Y0425000D03*
X0320500Y0415000D03*
X0320500Y0405000D03*
X0320500Y0395000D03*
X0320500Y0385000D03*
X0320500Y0375000D03*
X0320500Y0365000D03*
X0320500Y0355000D03*
X0320500Y0345000D03*
X0320500Y0335000D03*
X0320500Y0325000D03*
X0320500Y0315000D03*
X0320500Y0305000D03*
X0320500Y0295000D03*
X0320500Y0285000D03*
X0320500Y0275000D03*
X0320500Y0265000D03*
X0320500Y0255000D03*
X0320500Y0245000D03*
X0320500Y0235000D03*
X0320500Y0225000D03*
X0320500Y0215000D03*
X0320500Y0205000D03*
X0320500Y0195000D03*
X0320500Y0185000D03*
X0320500Y0175000D03*
X0320500Y0165000D03*
X0320500Y0155000D03*
X0320500Y0145000D03*
X0320500Y0135000D03*
X0320500Y0125000D03*
X0320500Y0115000D03*
X0330500Y0115000D03*
X0330500Y0125000D03*
X0330500Y0135000D03*
X0330500Y0145000D03*
X0330500Y0155000D03*
X0330500Y0165000D03*
X0330500Y0175000D03*
X0330500Y0185000D03*
X0330500Y0195000D03*
X0330500Y0205000D03*
X0330500Y0215000D03*
X0330500Y0225000D03*
X0330500Y0235000D03*
X0330500Y0245000D03*
X0330500Y0255000D03*
X0330500Y0265000D03*
X0330500Y0275000D03*
X0330500Y0285000D03*
X0330500Y0295000D03*
X0330500Y0305000D03*
X0330500Y0315000D03*
X0330500Y0325000D03*
X0330500Y0335000D03*
X0330500Y0345000D03*
X0330500Y0355000D03*
X0330500Y0365000D03*
X0330500Y0375000D03*
X0330500Y0385000D03*
X0330500Y0395000D03*
X0330500Y0405000D03*
X0330500Y0415000D03*
X0330500Y0425000D03*
X0330500Y0435000D03*
X0330500Y0445000D03*
X0330500Y0455000D03*
X0340500Y0455000D03*
X0340500Y0445000D03*
X0340500Y0435000D03*
X0340500Y0425000D03*
X0340500Y0415000D03*
X0340500Y0405000D03*
X0340500Y0395000D03*
X0340500Y0385000D03*
X0340500Y0375000D03*
X0340500Y0365000D03*
X0340500Y0355000D03*
X0340500Y0345000D03*
X0340500Y0335000D03*
X0340500Y0325000D03*
X0340500Y0315000D03*
X0340500Y0305000D03*
X0340500Y0295000D03*
X0340500Y0285000D03*
X0340500Y0275000D03*
X0340500Y0265000D03*
X0340500Y0255000D03*
X0340500Y0245000D03*
X0340500Y0235000D03*
X0340500Y0225000D03*
X0340500Y0215000D03*
X0340500Y0205000D03*
X0340500Y0195000D03*
X0340500Y0185000D03*
X0340500Y0175000D03*
X0340500Y0165000D03*
X0340500Y0155000D03*
X0340500Y0145000D03*
X0340500Y0135000D03*
X0340500Y0125000D03*
X0340500Y0115000D03*
X0350500Y0115000D03*
X0350500Y0125000D03*
X0350500Y0135000D03*
X0350500Y0145000D03*
X0350500Y0155000D03*
X0350500Y0165000D03*
X0350500Y0175000D03*
X0350500Y0185000D03*
X0350500Y0195000D03*
X0350500Y0205000D03*
X0350500Y0215000D03*
X0350500Y0225000D03*
X0350500Y0235000D03*
X0350500Y0245000D03*
X0350500Y0255000D03*
X0350500Y0265000D03*
X0350500Y0275000D03*
X0350500Y0285000D03*
X0350500Y0295000D03*
X0350500Y0305000D03*
X0350500Y0315000D03*
X0350500Y0325000D03*
X0350500Y0335000D03*
X0350500Y0345000D03*
X0350500Y0355000D03*
X0350500Y0365000D03*
X0350500Y0375000D03*
X0350500Y0385000D03*
X0350500Y0395000D03*
X0350500Y0405000D03*
X0350500Y0415000D03*
X0350500Y0425000D03*
X0350500Y0435000D03*
X0350500Y0445000D03*
X0350500Y0455000D03*
X0360500Y0455000D03*
X0360500Y0445000D03*
X0360500Y0435000D03*
X0360500Y0425000D03*
X0360500Y0415000D03*
X0360500Y0405000D03*
X0360500Y0395000D03*
X0360500Y0385000D03*
X0360500Y0375000D03*
X0360500Y0365000D03*
X0360500Y0355000D03*
X0360500Y0345000D03*
X0360500Y0335000D03*
X0360500Y0325000D03*
X0360500Y0315000D03*
X0360500Y0305000D03*
X0360500Y0295000D03*
X0360500Y0285000D03*
X0360500Y0275000D03*
X0360500Y0265000D03*
X0360500Y0255000D03*
X0360500Y0245000D03*
X0360500Y0235000D03*
X0360500Y0225000D03*
X0360500Y0215000D03*
X0360500Y0205000D03*
X0360500Y0195000D03*
X0360500Y0185000D03*
X0360500Y0175000D03*
X0360500Y0165000D03*
X0360500Y0155000D03*
X0360500Y0145000D03*
X0360500Y0135000D03*
X0360500Y0125000D03*
X0360500Y0115000D03*
X0370500Y0115000D03*
X0370500Y0125000D03*
X0370500Y0135000D03*
X0370500Y0145000D03*
X0370500Y0155000D03*
X0370500Y0165000D03*
X0370500Y0175000D03*
X0370500Y0185000D03*
X0370500Y0195000D03*
X0370500Y0205000D03*
X0370500Y0215000D03*
X0370500Y0225000D03*
X0370500Y0235000D03*
X0370500Y0245000D03*
X0370500Y0255000D03*
X0370500Y0265000D03*
X0370500Y0275000D03*
X0370500Y0285000D03*
X0370500Y0295000D03*
X0370500Y0305000D03*
X0370500Y0315000D03*
X0370500Y0325000D03*
X0370500Y0335000D03*
X0370500Y0345000D03*
X0370500Y0355000D03*
X0370500Y0365000D03*
X0370500Y0375000D03*
X0370500Y0385000D03*
X0370500Y0395000D03*
X0370500Y0405000D03*
X0370500Y0415000D03*
X0370500Y0425000D03*
X0370500Y0435000D03*
X0370500Y0445000D03*
X0370500Y0455000D03*
X0380500Y0455000D03*
X0380500Y0445000D03*
X0380500Y0435000D03*
X0380500Y0425000D03*
X0380500Y0415000D03*
X0380500Y0405000D03*
X0380500Y0395000D03*
X0380500Y0385000D03*
X0380500Y0375000D03*
X0380500Y0365000D03*
X0380500Y0355000D03*
X0380500Y0345000D03*
X0380500Y0335000D03*
X0380500Y0325000D03*
X0380500Y0315000D03*
X0380500Y0305000D03*
X0380500Y0295000D03*
X0380500Y0285000D03*
X0380500Y0275000D03*
X0380500Y0265000D03*
X0380500Y0255000D03*
X0380500Y0245000D03*
X0380500Y0235000D03*
X0380500Y0225000D03*
X0380500Y0215000D03*
X0380500Y0205000D03*
X0380500Y0195000D03*
X0380500Y0185000D03*
X0380500Y0175000D03*
X0380500Y0165000D03*
X0380500Y0155000D03*
X0380500Y0145000D03*
X0380500Y0135000D03*
X0380500Y0125000D03*
X0380500Y0115000D03*
X0100500Y0115000D03*
X0100500Y0125000D03*
X0100500Y0135000D03*
X0100500Y0145000D03*
X0100500Y0155000D03*
X0100500Y0165000D03*
X0100500Y0175000D03*
X0100500Y0185000D03*
X0100500Y0195000D03*
X0100500Y0205000D03*
X0100500Y0215000D03*
X0100500Y0225000D03*
X0100500Y0235000D03*
X0100500Y0245000D03*
X0100500Y0255000D03*
X0100500Y0265000D03*
X0100500Y0275000D03*
X0100500Y0285000D03*
X0100500Y0295000D03*
X0100500Y0305000D03*
X0100500Y0315000D03*
X0100500Y0325000D03*
X0100500Y0335000D03*
X0100500Y0345000D03*
X0100500Y0355000D03*
X0100500Y0365000D03*
X0100500Y0375000D03*
X0100500Y0385000D03*
X0100500Y0395000D03*
X0100500Y0405000D03*
X0100500Y0415000D03*
X0100500Y0425000D03*
X0100500Y0435000D03*
X0100500Y0445000D03*
X0100500Y0455000D03*
X0090500Y0455000D03*
X0090500Y0445000D03*
X0090500Y0435000D03*
X0090500Y0425000D03*
X0090500Y0415000D03*
X0090500Y0405000D03*
X0090500Y0395000D03*
X0090500Y0385000D03*
X0090500Y0375000D03*
X0090500Y0365000D03*
X0090500Y0355000D03*
X0090500Y0345000D03*
X0090500Y0335000D03*
X0090500Y0325000D03*
X0090500Y0315000D03*
X0090500Y0305000D03*
X0090500Y0295000D03*
X0090500Y0285000D03*
X0090500Y0275000D03*
X0090500Y0265000D03*
X0090500Y0255000D03*
X0090500Y0245000D03*
X0090500Y0235000D03*
X0090500Y0225000D03*
X0090500Y0215000D03*
X0090500Y0205000D03*
X0090500Y0195000D03*
X0090500Y0185000D03*
X0090500Y0175000D03*
X0090500Y0165000D03*
X0090500Y0155000D03*
X0090500Y0145000D03*
X0090500Y0135000D03*
X0090500Y0125000D03*
X0090500Y0115000D03*
X0080500Y0115000D03*
X0080500Y0125000D03*
X0080500Y0135000D03*
X0080500Y0145000D03*
X0080500Y0155000D03*
X0080500Y0165000D03*
X0080500Y0175000D03*
X0080500Y0185000D03*
X0080500Y0195000D03*
X0080500Y0205000D03*
X0080500Y0215000D03*
X0080500Y0225000D03*
X0080500Y0235000D03*
X0080500Y0245000D03*
X0080500Y0255000D03*
X0080500Y0265000D03*
X0080500Y0275000D03*
X0080500Y0285000D03*
X0080500Y0295000D03*
X0080500Y0305000D03*
X0080500Y0315000D03*
X0080500Y0325000D03*
X0080500Y0335000D03*
X0080500Y0345000D03*
X0080500Y0355000D03*
X0080500Y0365000D03*
X0080500Y0375000D03*
X0080500Y0385000D03*
X0080500Y0395000D03*
X0080500Y0405000D03*
X0080500Y0415000D03*
X0080500Y0425000D03*
X0080500Y0435000D03*
X0080500Y0445000D03*
X0080500Y0455000D03*
X0070500Y0455000D03*
X0070500Y0445000D03*
X0070500Y0435000D03*
X0070500Y0425000D03*
X0070500Y0415000D03*
X0070500Y0405000D03*
X0070500Y0395000D03*
X0070500Y0385000D03*
X0070500Y0375000D03*
X0070500Y0365000D03*
X0070500Y0355000D03*
X0070500Y0345000D03*
X0070500Y0335000D03*
X0070500Y0325000D03*
X0070500Y0315000D03*
X0070500Y0305000D03*
X0070500Y0295000D03*
X0070500Y0285000D03*
X0070500Y0275000D03*
X0070500Y0265000D03*
X0070500Y0255000D03*
X0070500Y0245000D03*
X0070500Y0235000D03*
X0070500Y0225000D03*
X0070500Y0215000D03*
X0070500Y0205000D03*
X0070500Y0195000D03*
X0070500Y0185000D03*
X0070500Y0175000D03*
X0070500Y0165000D03*
X0070500Y0155000D03*
X0070500Y0145000D03*
X0070500Y0135000D03*
X0070500Y0125000D03*
X0070500Y0115000D03*
X0060500Y0115000D03*
X0060500Y0125000D03*
X0060500Y0135000D03*
X0060500Y0145000D03*
X0060500Y0155000D03*
X0060500Y0165000D03*
X0060500Y0175000D03*
X0060500Y0185000D03*
X0060500Y0195000D03*
X0060500Y0205000D03*
X0060500Y0215000D03*
X0060500Y0225000D03*
X0060500Y0235000D03*
X0060500Y0245000D03*
X0060500Y0255000D03*
X0060500Y0265000D03*
X0060500Y0275000D03*
X0060500Y0285000D03*
X0060500Y0295000D03*
X0060500Y0305000D03*
X0060500Y0315000D03*
X0060500Y0325000D03*
X0060500Y0335000D03*
X0060500Y0345000D03*
X0060500Y0355000D03*
X0060500Y0365000D03*
X0060500Y0375000D03*
X0060500Y0385000D03*
X0060500Y0395000D03*
X0060500Y0405000D03*
X0060500Y0415000D03*
X0060500Y0425000D03*
X0060500Y0435000D03*
X0060500Y0445000D03*
X0060500Y0455000D03*
X0050500Y0455000D03*
X0050500Y0445000D03*
X0050500Y0435000D03*
X0050500Y0425000D03*
X0050500Y0415000D03*
X0050500Y0405000D03*
X0050500Y0395000D03*
X0050500Y0385000D03*
X0050500Y0375000D03*
X0050500Y0365000D03*
X0050500Y0355000D03*
X0050500Y0345000D03*
X0050500Y0335000D03*
X0050500Y0325000D03*
X0050500Y0315000D03*
X0050500Y0305000D03*
X0050500Y0295000D03*
X0050500Y0285000D03*
X0050500Y0275000D03*
X0050500Y0265000D03*
X0050500Y0255000D03*
X0050500Y0245000D03*
X0050500Y0235000D03*
X0050500Y0225000D03*
X0050500Y0215000D03*
X0050500Y0205000D03*
X0050500Y0195000D03*
X0050500Y0185000D03*
X0050500Y0175000D03*
X0050500Y0165000D03*
X0050500Y0155000D03*
X0050500Y0145000D03*
X0050500Y0135000D03*
X0050500Y0125000D03*
X0050500Y0115000D03*
X0040500Y0115000D03*
X0040500Y0125000D03*
X0040500Y0135000D03*
X0040500Y0145000D03*
X0040500Y0155000D03*
X0040500Y0165000D03*
X0040500Y0175000D03*
X0040500Y0185000D03*
X0040500Y0195000D03*
X0040500Y0205000D03*
X0040500Y0215000D03*
X0040500Y0225000D03*
X0040500Y0235000D03*
X0040500Y0245000D03*
X0040500Y0255000D03*
X0040500Y0265000D03*
X0040500Y0275000D03*
X0040500Y0285000D03*
X0040500Y0295000D03*
X0040500Y0305000D03*
X0040500Y0315000D03*
X0040500Y0325000D03*
X0040500Y0335000D03*
X0040500Y0345000D03*
X0040500Y0355000D03*
X0040500Y0365000D03*
X0040500Y0375000D03*
X0040500Y0385000D03*
X0040500Y0395000D03*
X0040500Y0405000D03*
X0040500Y0415000D03*
X0040500Y0425000D03*
X0040500Y0435000D03*
X0040500Y0445000D03*
X0040500Y0455000D03*
M02*
