G75*
%MOIN*%
%OFA0B0*%
%FSLAX25Y25*%
%IPPOS*%
%LPD*%
%AMOC8*
5,1,8,0,0,1.08239X$1,22.5*
%
%ADD10C,0.01000*%
%ADD11C,0.00200*%
%ADD12C,0.00400*%
%ADD13C,0.00300*%
%ADD14C,0.00000*%
%ADD15C,0.00700*%
%ADD16C,0.00500*%
D10*
X0053000Y0076000D02*
X0101000Y0076000D01*
X0101000Y0005000D01*
X0360000Y0005000D01*
X0360000Y0076000D01*
X0408000Y0076000D01*
X0408000Y0493181D01*
X0014000Y0493181D01*
X0014000Y0091000D01*
X0053000Y0091000D01*
X0053000Y0076000D01*
X0096051Y0470000D02*
X0321051Y0470000D01*
D11*
X0388194Y0107302D02*
X0389295Y0107302D01*
X0389295Y0105100D01*
X0388194Y0105100D01*
X0387827Y0105467D01*
X0387827Y0106935D01*
X0388194Y0107302D01*
X0390037Y0107302D02*
X0390037Y0105100D01*
X0391505Y0107302D01*
X0391505Y0105100D01*
X0392247Y0105467D02*
X0392247Y0106201D01*
X0392981Y0106201D01*
X0393715Y0106935D02*
X0393715Y0105467D01*
X0393348Y0105100D01*
X0392614Y0105100D01*
X0392247Y0105467D01*
X0392247Y0106935D02*
X0392614Y0107302D01*
X0393348Y0107302D01*
X0393715Y0106935D01*
X0353715Y0094535D02*
X0353715Y0093067D01*
X0353348Y0092700D01*
X0352614Y0092700D01*
X0352247Y0093067D01*
X0351505Y0093067D02*
X0351138Y0092700D01*
X0350404Y0092700D01*
X0350037Y0093067D01*
X0350037Y0093434D01*
X0350404Y0093801D01*
X0351138Y0093801D01*
X0351505Y0094168D01*
X0351505Y0094535D01*
X0351138Y0094902D01*
X0350404Y0094902D01*
X0350037Y0094535D01*
X0349295Y0094168D02*
X0348561Y0094902D01*
X0348561Y0092700D01*
X0349295Y0092700D02*
X0347827Y0092700D01*
X0344820Y0093067D02*
X0344820Y0094535D01*
X0344453Y0094902D01*
X0343719Y0094902D01*
X0343352Y0094535D01*
X0342610Y0094535D02*
X0342610Y0094168D01*
X0342243Y0093801D01*
X0341509Y0093801D01*
X0341142Y0093434D01*
X0341142Y0093067D01*
X0341509Y0092700D01*
X0342243Y0092700D01*
X0342610Y0093067D01*
X0343352Y0093067D02*
X0343719Y0092700D01*
X0344453Y0092700D01*
X0344820Y0093067D01*
X0342610Y0094535D02*
X0342243Y0094902D01*
X0341509Y0094902D01*
X0341142Y0094535D01*
X0340400Y0094168D02*
X0339666Y0094902D01*
X0339666Y0092700D01*
X0340400Y0092700D02*
X0338932Y0092700D01*
X0338190Y0092700D02*
X0336722Y0094168D01*
X0336722Y0094535D01*
X0337089Y0094902D01*
X0337823Y0094902D01*
X0338190Y0094535D01*
X0338190Y0092700D02*
X0336722Y0092700D01*
X0332610Y0092700D02*
X0332610Y0094902D01*
X0331142Y0092700D01*
X0331142Y0094902D01*
X0330400Y0094535D02*
X0330400Y0093067D01*
X0330033Y0092700D01*
X0329299Y0092700D01*
X0328932Y0093067D01*
X0328932Y0094535D02*
X0329299Y0094902D01*
X0330033Y0094902D01*
X0330400Y0094535D01*
X0324451Y0094902D02*
X0324451Y0092700D01*
X0323717Y0093434D01*
X0322984Y0092700D01*
X0322984Y0094902D01*
X0322242Y0094168D02*
X0322242Y0092700D01*
X0322242Y0093801D02*
X0320774Y0093801D01*
X0320774Y0094168D02*
X0320774Y0092700D01*
X0320032Y0092700D02*
X0319298Y0092700D01*
X0319665Y0092700D02*
X0319665Y0094902D01*
X0320032Y0094902D02*
X0319298Y0094902D01*
X0318558Y0094902D02*
X0317091Y0094902D01*
X0317824Y0094902D02*
X0317824Y0092700D01*
X0320774Y0094168D02*
X0321508Y0094902D01*
X0322242Y0094168D01*
X0312610Y0094902D02*
X0312610Y0092700D01*
X0311142Y0092700D02*
X0311142Y0094902D01*
X0311876Y0094168D01*
X0312610Y0094902D01*
X0310400Y0094168D02*
X0309666Y0094902D01*
X0309666Y0092700D01*
X0310400Y0092700D02*
X0308932Y0092700D01*
X0304451Y0092700D02*
X0303717Y0092700D01*
X0304084Y0092700D02*
X0304084Y0094902D01*
X0304451Y0094902D02*
X0303717Y0094902D01*
X0302978Y0094535D02*
X0302978Y0093067D01*
X0302611Y0092700D01*
X0301877Y0092700D01*
X0301510Y0093067D01*
X0301510Y0094535D01*
X0301877Y0094902D01*
X0302611Y0094902D01*
X0302978Y0094535D01*
X0300768Y0094902D02*
X0300768Y0092700D01*
X0300768Y0093434D02*
X0299667Y0093434D01*
X0299300Y0093801D01*
X0299300Y0094535D01*
X0299667Y0094902D01*
X0300768Y0094902D01*
X0300034Y0093434D02*
X0299300Y0092700D01*
X0298558Y0093067D02*
X0298191Y0092700D01*
X0297458Y0092700D01*
X0297091Y0093067D01*
X0297091Y0094535D01*
X0297458Y0094902D01*
X0298191Y0094902D01*
X0298558Y0094535D01*
X0298558Y0093067D01*
X0297824Y0093434D02*
X0297091Y0092700D01*
X0292610Y0092700D02*
X0291876Y0093434D01*
X0291142Y0092700D01*
X0291142Y0094902D01*
X0290400Y0094902D02*
X0289299Y0094902D01*
X0288932Y0094535D01*
X0288932Y0093801D01*
X0289299Y0093434D01*
X0290400Y0093434D01*
X0289666Y0093434D02*
X0288932Y0092700D01*
X0290400Y0092700D02*
X0290400Y0094902D01*
X0292610Y0094902D02*
X0292610Y0092700D01*
X0285925Y0092700D02*
X0285925Y0094902D01*
X0284824Y0094902D01*
X0284457Y0094535D01*
X0284457Y0093801D01*
X0284824Y0093434D01*
X0285925Y0093434D01*
X0285191Y0093434D02*
X0284457Y0092700D01*
X0283715Y0092700D02*
X0283715Y0094902D01*
X0282247Y0094902D01*
X0281505Y0094535D02*
X0281505Y0094168D01*
X0281138Y0093801D01*
X0280404Y0093801D01*
X0280037Y0093434D01*
X0280037Y0093067D01*
X0280404Y0092700D01*
X0281138Y0092700D01*
X0281505Y0093067D01*
X0282247Y0092700D02*
X0283715Y0092700D01*
X0283715Y0093801D02*
X0282981Y0093801D01*
X0281505Y0094535D02*
X0281138Y0094902D01*
X0280404Y0094902D01*
X0280037Y0094535D01*
X0279295Y0094902D02*
X0279295Y0092700D01*
X0277827Y0092700D01*
X0278561Y0093801D02*
X0279295Y0093801D01*
X0279295Y0094902D02*
X0277827Y0094902D01*
X0277085Y0094902D02*
X0275617Y0094902D01*
X0276351Y0094902D02*
X0276351Y0092700D01*
X0272610Y0092700D02*
X0272610Y0094168D01*
X0271876Y0094902D01*
X0271142Y0094168D01*
X0271142Y0092700D01*
X0270400Y0093067D02*
X0270033Y0092700D01*
X0269299Y0092700D01*
X0268932Y0093067D01*
X0268932Y0094535D01*
X0269299Y0094902D01*
X0270033Y0094902D01*
X0270400Y0094535D01*
X0270400Y0094168D01*
X0270033Y0093801D01*
X0268932Y0093801D01*
X0271142Y0093801D02*
X0272610Y0093801D01*
X0263715Y0093801D02*
X0262247Y0093801D01*
X0262247Y0094168D02*
X0262247Y0092700D01*
X0261505Y0092700D02*
X0260037Y0092700D01*
X0260771Y0092700D02*
X0260771Y0094902D01*
X0261505Y0094168D01*
X0262247Y0094168D02*
X0262981Y0094902D01*
X0263715Y0094168D01*
X0263715Y0092700D01*
X0259295Y0092700D02*
X0257827Y0092700D01*
X0258561Y0092700D02*
X0258561Y0094902D01*
X0259295Y0094168D01*
X0252610Y0094168D02*
X0252610Y0092700D01*
X0252610Y0093801D02*
X0251142Y0093801D01*
X0251142Y0094168D02*
X0251142Y0092700D01*
X0250400Y0092700D02*
X0250400Y0093067D01*
X0248932Y0094535D01*
X0248932Y0094902D01*
X0250400Y0094902D01*
X0251142Y0094168D02*
X0251876Y0094902D01*
X0252610Y0094168D01*
X0243715Y0094168D02*
X0243715Y0092700D01*
X0243715Y0093801D02*
X0242247Y0093801D01*
X0242247Y0094168D02*
X0242247Y0092700D01*
X0241505Y0092700D02*
X0240037Y0092700D01*
X0240771Y0092700D02*
X0240771Y0094902D01*
X0241505Y0094168D01*
X0242247Y0094168D02*
X0242981Y0094902D01*
X0243715Y0094168D01*
X0239295Y0094535D02*
X0238928Y0094902D01*
X0238194Y0094902D01*
X0237827Y0094535D01*
X0237827Y0094168D01*
X0239295Y0092700D01*
X0237827Y0092700D01*
X0233715Y0092700D02*
X0233715Y0094168D01*
X0232981Y0094902D01*
X0232247Y0094168D01*
X0232247Y0092700D01*
X0231505Y0092700D02*
X0230037Y0092700D01*
X0230771Y0092700D02*
X0230771Y0094902D01*
X0231505Y0094168D01*
X0232247Y0093801D02*
X0233715Y0093801D01*
X0229295Y0093801D02*
X0227827Y0093801D01*
X0228194Y0092700D02*
X0228194Y0094902D01*
X0229295Y0093801D01*
X0222610Y0093801D02*
X0221142Y0093801D01*
X0221142Y0094168D02*
X0221142Y0092700D01*
X0220400Y0092700D02*
X0218932Y0092700D01*
X0219666Y0092700D02*
X0219666Y0094902D01*
X0220400Y0094168D01*
X0221142Y0094168D02*
X0221876Y0094902D01*
X0222610Y0094168D01*
X0222610Y0092700D01*
X0212610Y0092700D02*
X0212610Y0094168D01*
X0211876Y0094902D01*
X0211142Y0094168D01*
X0211142Y0092700D01*
X0210400Y0093067D02*
X0210033Y0092700D01*
X0209299Y0092700D01*
X0208932Y0093067D01*
X0208932Y0093434D01*
X0209299Y0093801D01*
X0209666Y0093801D01*
X0209299Y0093801D02*
X0208932Y0094168D01*
X0208932Y0094535D01*
X0209299Y0094902D01*
X0210033Y0094902D01*
X0210400Y0094535D01*
X0211142Y0093801D02*
X0212610Y0093801D01*
X0202610Y0093801D02*
X0201142Y0093801D01*
X0201142Y0094168D02*
X0201142Y0092700D01*
X0200400Y0093067D02*
X0200033Y0092700D01*
X0199299Y0092700D01*
X0198932Y0093067D01*
X0198932Y0093801D01*
X0199299Y0094168D01*
X0199666Y0094168D01*
X0200400Y0093801D01*
X0200400Y0094902D01*
X0198932Y0094902D01*
X0201142Y0094168D02*
X0201876Y0094902D01*
X0202610Y0094168D01*
X0202610Y0092700D01*
X0192610Y0092700D02*
X0191509Y0092700D01*
X0191142Y0093067D01*
X0191142Y0094535D01*
X0191509Y0094902D01*
X0192610Y0094902D01*
X0192610Y0092700D01*
X0190400Y0092700D02*
X0188932Y0092700D01*
X0189666Y0092700D02*
X0189666Y0094902D01*
X0190400Y0094168D01*
X0182610Y0094902D02*
X0182610Y0092700D01*
X0181509Y0092700D01*
X0181142Y0093067D01*
X0181142Y0094535D01*
X0181509Y0094902D01*
X0182610Y0094902D01*
X0180400Y0094535D02*
X0180033Y0094902D01*
X0179299Y0094902D01*
X0178932Y0094535D01*
X0178932Y0094168D01*
X0179299Y0093801D01*
X0178932Y0093434D01*
X0178932Y0093067D01*
X0179299Y0092700D01*
X0180033Y0092700D01*
X0180400Y0093067D01*
X0179666Y0093801D02*
X0179299Y0093801D01*
X0172610Y0094902D02*
X0172610Y0092700D01*
X0171509Y0092700D01*
X0171142Y0093067D01*
X0171142Y0094535D01*
X0171509Y0094902D01*
X0172610Y0094902D01*
X0170400Y0094902D02*
X0170400Y0093801D01*
X0169666Y0094168D01*
X0169299Y0094168D01*
X0168932Y0093801D01*
X0168932Y0093067D01*
X0169299Y0092700D01*
X0170033Y0092700D01*
X0170400Y0093067D01*
X0170400Y0094902D02*
X0168932Y0094902D01*
X0162610Y0094902D02*
X0162610Y0092700D01*
X0161509Y0092700D01*
X0161142Y0093067D01*
X0161142Y0094535D01*
X0161509Y0094902D01*
X0162610Y0094902D01*
X0160400Y0094902D02*
X0158932Y0094902D01*
X0158932Y0094535D01*
X0160400Y0093067D01*
X0160400Y0092700D01*
X0153715Y0093067D02*
X0153715Y0094535D01*
X0153348Y0094902D01*
X0152614Y0094902D01*
X0152247Y0094535D01*
X0152247Y0093801D02*
X0152981Y0093801D01*
X0152247Y0093801D02*
X0152247Y0093067D01*
X0152614Y0092700D01*
X0153348Y0092700D01*
X0153715Y0093067D01*
X0151505Y0092700D02*
X0151505Y0094902D01*
X0150037Y0092700D01*
X0150037Y0094902D01*
X0149295Y0094902D02*
X0148194Y0094902D01*
X0147827Y0094535D01*
X0147827Y0093067D01*
X0148194Y0092700D01*
X0149295Y0092700D01*
X0149295Y0094902D01*
X0143715Y0094535D02*
X0143715Y0093067D01*
X0143348Y0092700D01*
X0142614Y0092700D01*
X0142247Y0093067D01*
X0142247Y0093801D01*
X0142981Y0093801D01*
X0143715Y0094535D02*
X0143348Y0094902D01*
X0142614Y0094902D01*
X0142247Y0094535D01*
X0141505Y0094902D02*
X0140037Y0092700D01*
X0140037Y0094902D01*
X0139295Y0094902D02*
X0139295Y0092700D01*
X0138194Y0092700D01*
X0137827Y0093067D01*
X0137827Y0094535D01*
X0138194Y0094902D01*
X0139295Y0094902D01*
X0141505Y0094902D02*
X0141505Y0092700D01*
X0133715Y0093801D02*
X0132247Y0093801D01*
X0131505Y0093801D02*
X0130771Y0094168D01*
X0130404Y0094168D01*
X0130037Y0093801D01*
X0130037Y0093067D01*
X0130404Y0092700D01*
X0131138Y0092700D01*
X0131505Y0093067D01*
X0131505Y0093801D02*
X0131505Y0094902D01*
X0130037Y0094902D01*
X0129295Y0094902D02*
X0129295Y0093434D01*
X0128561Y0092700D01*
X0127827Y0093434D01*
X0127827Y0094902D01*
X0123715Y0093801D02*
X0122247Y0093801D01*
X0121505Y0093801D02*
X0120771Y0094168D01*
X0120404Y0094168D01*
X0120037Y0093801D01*
X0120037Y0093067D01*
X0120404Y0092700D01*
X0121138Y0092700D01*
X0121505Y0093067D01*
X0121505Y0093801D02*
X0121505Y0094902D01*
X0120037Y0094902D01*
X0119295Y0094902D02*
X0119295Y0093434D01*
X0118561Y0092700D01*
X0117827Y0093434D01*
X0117827Y0094902D01*
X0115556Y0094535D02*
X0115556Y0094168D01*
X0115189Y0093801D01*
X0114455Y0093801D01*
X0114088Y0093434D01*
X0114088Y0093067D01*
X0114455Y0092700D01*
X0115189Y0092700D01*
X0115556Y0093067D01*
X0115556Y0094535D02*
X0115189Y0094902D01*
X0114455Y0094902D01*
X0114088Y0094535D01*
X0113347Y0094902D02*
X0111879Y0092700D01*
X0111879Y0094902D01*
X0111137Y0094902D02*
X0110036Y0094902D01*
X0109669Y0094535D01*
X0109669Y0093067D01*
X0110036Y0092700D01*
X0111137Y0092700D01*
X0111137Y0094902D01*
X0113347Y0094902D02*
X0113347Y0092700D01*
X0108927Y0092700D02*
X0108193Y0092700D01*
X0108560Y0092700D02*
X0108560Y0094902D01*
X0108927Y0094902D02*
X0108193Y0094902D01*
X0107454Y0094902D02*
X0105986Y0092700D01*
X0105986Y0094902D01*
X0107454Y0094902D02*
X0107454Y0092700D01*
X0122981Y0093067D02*
X0122981Y0094535D01*
X0132981Y0094535D02*
X0132981Y0093067D01*
X0133348Y0074902D02*
X0133715Y0074535D01*
X0133715Y0074168D01*
X0133348Y0073801D01*
X0132614Y0073801D01*
X0132247Y0073434D01*
X0132247Y0073067D01*
X0132614Y0072700D01*
X0133348Y0072700D01*
X0133715Y0073067D01*
X0133348Y0074902D02*
X0132614Y0074902D01*
X0132247Y0074535D01*
X0131505Y0074902D02*
X0131505Y0072700D01*
X0130771Y0073434D01*
X0130037Y0072700D01*
X0130037Y0074902D01*
X0129295Y0074535D02*
X0128928Y0074902D01*
X0128194Y0074902D01*
X0127827Y0074535D01*
X0127827Y0074168D01*
X0129295Y0072700D01*
X0127827Y0072700D01*
X0124820Y0073801D02*
X0123352Y0073801D01*
X0122610Y0074168D02*
X0121876Y0074902D01*
X0121876Y0072700D01*
X0122610Y0072700D02*
X0121142Y0072700D01*
X0120400Y0072700D02*
X0118932Y0074168D01*
X0118932Y0074535D01*
X0119299Y0074902D01*
X0120033Y0074902D01*
X0120400Y0074535D01*
X0120400Y0072700D02*
X0118932Y0072700D01*
X0118190Y0073434D02*
X0118190Y0074902D01*
X0116722Y0074902D02*
X0116722Y0073434D01*
X0117456Y0072700D01*
X0118190Y0073434D01*
X0114820Y0073801D02*
X0113352Y0073801D01*
X0112610Y0074168D02*
X0111876Y0074902D01*
X0111876Y0072700D01*
X0112610Y0072700D02*
X0111142Y0072700D01*
X0110400Y0072700D02*
X0108932Y0074168D01*
X0108932Y0074535D01*
X0109299Y0074902D01*
X0110033Y0074902D01*
X0110400Y0074535D01*
X0110400Y0072700D02*
X0108932Y0072700D01*
X0108190Y0073434D02*
X0107456Y0072700D01*
X0106722Y0073434D01*
X0106722Y0074902D01*
X0108190Y0074902D02*
X0108190Y0073434D01*
X0124086Y0073067D02*
X0124086Y0074535D01*
X0137827Y0072700D02*
X0139295Y0072700D01*
X0138561Y0072700D02*
X0138561Y0074902D01*
X0139295Y0074168D01*
X0140037Y0074902D02*
X0140037Y0072700D01*
X0140771Y0073434D01*
X0141505Y0072700D01*
X0141505Y0074902D01*
X0142247Y0074535D02*
X0142614Y0074902D01*
X0143348Y0074902D01*
X0143715Y0074535D01*
X0143715Y0074168D01*
X0143348Y0073801D01*
X0142614Y0073801D01*
X0142247Y0073434D01*
X0142247Y0073067D01*
X0142614Y0072700D01*
X0143348Y0072700D01*
X0143715Y0073067D01*
X0145617Y0072700D02*
X0146718Y0073801D01*
X0147085Y0073434D02*
X0145617Y0074902D01*
X0147085Y0074902D02*
X0147085Y0072700D01*
X0147827Y0073067D02*
X0148194Y0072700D01*
X0148928Y0072700D01*
X0149295Y0073067D01*
X0149295Y0074535D01*
X0148928Y0074902D01*
X0148194Y0074902D01*
X0147827Y0074535D01*
X0150037Y0074535D02*
X0150037Y0073067D01*
X0150404Y0072700D01*
X0151138Y0072700D01*
X0151505Y0073067D01*
X0151505Y0074535D01*
X0151138Y0074902D01*
X0150404Y0074902D01*
X0150037Y0074535D01*
X0152247Y0072700D02*
X0153715Y0072700D01*
X0153715Y0074902D01*
X0154457Y0074535D02*
X0154824Y0074902D01*
X0155558Y0074902D01*
X0155925Y0074535D01*
X0155925Y0073067D01*
X0155558Y0072700D01*
X0154824Y0072700D01*
X0154457Y0073067D01*
X0158932Y0073067D02*
X0158932Y0073434D01*
X0159299Y0073801D01*
X0160400Y0073801D01*
X0160400Y0073067D01*
X0160033Y0072700D01*
X0159299Y0072700D01*
X0158932Y0073067D01*
X0159666Y0074535D02*
X0160400Y0073801D01*
X0159666Y0074535D02*
X0158932Y0074902D01*
X0161142Y0074535D02*
X0161509Y0074902D01*
X0162610Y0074902D01*
X0162610Y0072700D01*
X0161509Y0072700D01*
X0161142Y0073067D01*
X0161142Y0074535D01*
X0168932Y0073801D02*
X0170400Y0073801D01*
X0169299Y0074902D01*
X0169299Y0072700D01*
X0171142Y0073067D02*
X0171142Y0074535D01*
X0171509Y0074902D01*
X0172610Y0074902D01*
X0172610Y0072700D01*
X0171509Y0072700D01*
X0171142Y0073067D01*
X0178932Y0072700D02*
X0180400Y0072700D01*
X0178932Y0074168D01*
X0178932Y0074535D01*
X0179299Y0074902D01*
X0180033Y0074902D01*
X0180400Y0074535D01*
X0181142Y0074535D02*
X0181509Y0074902D01*
X0182610Y0074902D01*
X0182610Y0072700D01*
X0181509Y0072700D01*
X0181142Y0073067D01*
X0181142Y0074535D01*
X0188932Y0074535D02*
X0190400Y0073067D01*
X0190033Y0072700D01*
X0189299Y0072700D01*
X0188932Y0073067D01*
X0188932Y0074535D01*
X0189299Y0074902D01*
X0190033Y0074902D01*
X0190400Y0074535D01*
X0190400Y0073067D01*
X0191142Y0073067D02*
X0191142Y0074535D01*
X0191509Y0074902D01*
X0192610Y0074902D01*
X0192610Y0072700D01*
X0191509Y0072700D01*
X0191142Y0073067D01*
X0198932Y0073801D02*
X0200400Y0073801D01*
X0199299Y0074902D01*
X0199299Y0072700D01*
X0201142Y0072700D02*
X0201142Y0074168D01*
X0201876Y0074902D01*
X0202610Y0074168D01*
X0202610Y0072700D01*
X0202610Y0073801D02*
X0201142Y0073801D01*
X0208932Y0074168D02*
X0208932Y0074535D01*
X0209299Y0074902D01*
X0210033Y0074902D01*
X0210400Y0074535D01*
X0211142Y0074168D02*
X0211876Y0074902D01*
X0212610Y0074168D01*
X0212610Y0072700D01*
X0212610Y0073801D02*
X0211142Y0073801D01*
X0211142Y0074168D02*
X0211142Y0072700D01*
X0210400Y0072700D02*
X0208932Y0074168D01*
X0208932Y0072700D02*
X0210400Y0072700D01*
X0218932Y0073067D02*
X0219299Y0072700D01*
X0220033Y0072700D01*
X0220400Y0073067D01*
X0218932Y0074535D01*
X0218932Y0073067D01*
X0218932Y0074535D02*
X0219299Y0074902D01*
X0220033Y0074902D01*
X0220400Y0074535D01*
X0220400Y0073067D01*
X0221142Y0072700D02*
X0221142Y0074168D01*
X0221876Y0074902D01*
X0222610Y0074168D01*
X0222610Y0072700D01*
X0222610Y0073801D02*
X0221142Y0073801D01*
X0227827Y0074168D02*
X0227827Y0074535D01*
X0228194Y0074902D01*
X0228928Y0074902D01*
X0229295Y0074535D01*
X0228561Y0073801D02*
X0228194Y0073801D01*
X0227827Y0073434D01*
X0227827Y0073067D01*
X0228194Y0072700D01*
X0228928Y0072700D01*
X0229295Y0073067D01*
X0230037Y0072700D02*
X0231505Y0072700D01*
X0230771Y0072700D02*
X0230771Y0074902D01*
X0231505Y0074168D01*
X0232247Y0074168D02*
X0232247Y0072700D01*
X0232247Y0073801D02*
X0233715Y0073801D01*
X0233715Y0074168D02*
X0232981Y0074902D01*
X0232247Y0074168D01*
X0233715Y0074168D02*
X0233715Y0072700D01*
X0238932Y0073067D02*
X0239299Y0072700D01*
X0240033Y0072700D01*
X0240400Y0073067D01*
X0240400Y0073434D01*
X0240033Y0073801D01*
X0239299Y0073801D01*
X0238932Y0073434D01*
X0238932Y0073067D01*
X0239299Y0073801D02*
X0238932Y0074168D01*
X0238932Y0074535D01*
X0239299Y0074902D01*
X0240033Y0074902D01*
X0240400Y0074535D01*
X0240400Y0074168D01*
X0240033Y0073801D01*
X0241142Y0073801D02*
X0242610Y0073801D01*
X0242610Y0074168D02*
X0241876Y0074902D01*
X0241142Y0074168D01*
X0241142Y0072700D01*
X0242610Y0072700D02*
X0242610Y0074168D01*
X0248932Y0074902D02*
X0249666Y0074535D01*
X0250400Y0073801D01*
X0249299Y0073801D01*
X0248932Y0073434D01*
X0248932Y0073067D01*
X0249299Y0072700D01*
X0250033Y0072700D01*
X0250400Y0073067D01*
X0250400Y0073801D01*
X0251142Y0073801D02*
X0252610Y0073801D01*
X0252610Y0074168D02*
X0251876Y0074902D01*
X0251142Y0074168D01*
X0251142Y0072700D01*
X0252610Y0072700D02*
X0252610Y0074168D01*
X0257827Y0074535D02*
X0259295Y0073067D01*
X0258928Y0072700D01*
X0258194Y0072700D01*
X0257827Y0073067D01*
X0257827Y0074535D01*
X0258194Y0074902D01*
X0258928Y0074902D01*
X0259295Y0074535D01*
X0259295Y0073067D01*
X0260037Y0072700D02*
X0261505Y0072700D01*
X0260771Y0072700D02*
X0260771Y0074902D01*
X0261505Y0074168D01*
X0262247Y0074168D02*
X0262247Y0072700D01*
X0262247Y0073801D02*
X0263715Y0073801D01*
X0263715Y0074168D02*
X0262981Y0074902D01*
X0262247Y0074168D01*
X0263715Y0074168D02*
X0263715Y0072700D01*
X0267827Y0073067D02*
X0268194Y0072700D01*
X0268928Y0072700D01*
X0269295Y0073067D01*
X0269295Y0073801D02*
X0268561Y0074168D01*
X0268194Y0074168D01*
X0267827Y0073801D01*
X0267827Y0073067D01*
X0269295Y0073801D02*
X0269295Y0074902D01*
X0267827Y0074902D01*
X0270771Y0074902D02*
X0270771Y0072700D01*
X0271505Y0072700D02*
X0270037Y0072700D01*
X0271505Y0074168D02*
X0270771Y0074902D01*
X0272247Y0074168D02*
X0272247Y0072700D01*
X0272247Y0073801D02*
X0273715Y0073801D01*
X0273715Y0074168D02*
X0272981Y0074902D01*
X0272247Y0074168D01*
X0273715Y0074168D02*
X0273715Y0072700D01*
X0278932Y0073067D02*
X0279299Y0072700D01*
X0280033Y0072700D01*
X0280400Y0073067D01*
X0280400Y0074535D01*
X0280033Y0074902D01*
X0279299Y0074902D01*
X0278932Y0074535D01*
X0281142Y0074902D02*
X0281142Y0072700D01*
X0282610Y0074902D01*
X0282610Y0072700D01*
X0288932Y0073067D02*
X0288932Y0074535D01*
X0289299Y0074902D01*
X0290400Y0074902D01*
X0290400Y0072700D01*
X0289299Y0072700D01*
X0288932Y0073067D01*
X0291142Y0072700D02*
X0291876Y0073434D01*
X0291509Y0073434D02*
X0292610Y0073434D01*
X0292610Y0072700D02*
X0292610Y0074902D01*
X0291509Y0074902D01*
X0291142Y0074535D01*
X0291142Y0073801D01*
X0291509Y0073434D01*
X0296722Y0073067D02*
X0296722Y0074535D01*
X0297089Y0074902D01*
X0297823Y0074902D01*
X0298190Y0074535D01*
X0298190Y0073067D01*
X0297823Y0072700D01*
X0297089Y0072700D01*
X0296722Y0073067D01*
X0296722Y0072700D02*
X0297456Y0073434D01*
X0298932Y0072700D02*
X0300400Y0072700D01*
X0300400Y0074902D01*
X0298932Y0074902D01*
X0299666Y0073801D02*
X0300400Y0073801D01*
X0301142Y0073801D02*
X0301142Y0074535D01*
X0301509Y0074902D01*
X0302610Y0074902D01*
X0302610Y0072700D01*
X0302610Y0073434D02*
X0301509Y0073434D01*
X0301142Y0073801D01*
X0301876Y0073434D02*
X0301142Y0072700D01*
X0303352Y0072700D02*
X0303352Y0074902D01*
X0304086Y0074168D01*
X0304820Y0074902D01*
X0304820Y0072700D01*
X0305617Y0072700D02*
X0306351Y0073434D01*
X0305984Y0073434D02*
X0307085Y0073434D01*
X0307085Y0072700D02*
X0307085Y0074902D01*
X0305984Y0074902D01*
X0305617Y0074535D01*
X0305617Y0073801D01*
X0305984Y0073434D01*
X0307827Y0073067D02*
X0307827Y0074535D01*
X0308194Y0074902D01*
X0309295Y0074902D01*
X0309295Y0072700D01*
X0308194Y0072700D01*
X0307827Y0073067D01*
X0310037Y0073067D02*
X0310404Y0072700D01*
X0311138Y0072700D01*
X0311505Y0073067D01*
X0312247Y0073067D02*
X0312247Y0074902D01*
X0311505Y0074535D02*
X0311505Y0074168D01*
X0311138Y0073801D01*
X0310404Y0073801D01*
X0310037Y0073434D01*
X0310037Y0073067D01*
X0310037Y0074535D02*
X0310404Y0074902D01*
X0311138Y0074902D01*
X0311505Y0074535D01*
X0312247Y0073067D02*
X0312614Y0072700D01*
X0313348Y0072700D01*
X0313715Y0073067D01*
X0313715Y0074902D01*
X0314457Y0074535D02*
X0314457Y0074168D01*
X0314824Y0073801D01*
X0315925Y0073801D01*
X0315925Y0072700D02*
X0315925Y0074902D01*
X0314824Y0074902D01*
X0314457Y0074535D01*
X0314824Y0073801D02*
X0314457Y0073434D01*
X0314457Y0073067D01*
X0314824Y0072700D01*
X0315925Y0072700D01*
X0318929Y0072700D02*
X0318929Y0074902D01*
X0319663Y0074902D02*
X0318195Y0074902D01*
X0320405Y0074902D02*
X0320405Y0072700D01*
X0321873Y0074902D01*
X0321873Y0072700D01*
X0322613Y0072700D02*
X0323347Y0072700D01*
X0322980Y0072700D02*
X0322980Y0074902D01*
X0323347Y0074902D02*
X0322613Y0074902D01*
X0326722Y0074902D02*
X0326722Y0072700D01*
X0326722Y0073801D02*
X0328190Y0073801D01*
X0328932Y0073434D02*
X0328932Y0073067D01*
X0329299Y0072700D01*
X0330033Y0072700D01*
X0330400Y0073067D01*
X0330033Y0073801D02*
X0329299Y0073801D01*
X0328932Y0073434D01*
X0328190Y0072700D02*
X0328190Y0074902D01*
X0328932Y0074535D02*
X0329299Y0074902D01*
X0330033Y0074902D01*
X0330400Y0074535D01*
X0330400Y0074168D01*
X0330033Y0073801D01*
X0331142Y0074902D02*
X0332610Y0074902D01*
X0332610Y0072700D01*
X0333352Y0072700D02*
X0334086Y0073434D01*
X0333719Y0073434D02*
X0334820Y0073434D01*
X0334820Y0072700D02*
X0334820Y0074902D01*
X0333719Y0074902D01*
X0333352Y0074535D01*
X0333352Y0073801D01*
X0333719Y0073434D01*
X0332610Y0073801D02*
X0331876Y0073801D01*
X0335617Y0072700D02*
X0337085Y0072700D01*
X0337085Y0074902D01*
X0337827Y0074535D02*
X0338194Y0074902D01*
X0338928Y0074902D01*
X0339295Y0074535D01*
X0339295Y0074168D01*
X0338928Y0073801D01*
X0338194Y0073801D01*
X0337827Y0073434D01*
X0337827Y0073067D01*
X0338194Y0072700D01*
X0338928Y0072700D01*
X0339295Y0073067D01*
X0340771Y0072700D02*
X0340771Y0074902D01*
X0341505Y0074902D02*
X0340037Y0074902D01*
X0342247Y0072700D02*
X0343715Y0072700D01*
X0343715Y0074902D01*
X0344457Y0074535D02*
X0344824Y0074902D01*
X0345558Y0074902D01*
X0345925Y0074535D01*
X0345925Y0074168D01*
X0345558Y0073801D01*
X0344824Y0073801D01*
X0344457Y0073434D01*
X0344457Y0073067D01*
X0344824Y0072700D01*
X0345558Y0072700D01*
X0345925Y0073067D01*
X0347827Y0072700D02*
X0349295Y0072700D01*
X0347827Y0074168D01*
X0347827Y0074535D01*
X0348194Y0074902D01*
X0348928Y0074902D01*
X0349295Y0074535D01*
X0350037Y0074535D02*
X0350404Y0074902D01*
X0351138Y0074902D01*
X0351505Y0074535D01*
X0351505Y0074168D01*
X0351138Y0073801D01*
X0350404Y0073801D01*
X0350037Y0073434D01*
X0350037Y0073067D01*
X0350404Y0072700D01*
X0351138Y0072700D01*
X0351505Y0073067D01*
X0352247Y0073067D02*
X0352614Y0072700D01*
X0353348Y0072700D01*
X0353715Y0073067D01*
X0353715Y0074535D01*
X0353348Y0074902D01*
X0352614Y0074902D01*
X0352247Y0074535D01*
X0352247Y0094535D02*
X0352614Y0094902D01*
X0353348Y0094902D01*
X0353715Y0094535D01*
X0228194Y0073801D02*
X0227827Y0074168D01*
X0033715Y0105467D02*
X0033348Y0105100D01*
X0032614Y0105100D01*
X0032247Y0105467D01*
X0032247Y0106201D01*
X0032981Y0106201D01*
X0033715Y0106935D02*
X0033715Y0105467D01*
X0033715Y0106935D02*
X0033348Y0107302D01*
X0032614Y0107302D01*
X0032247Y0106935D01*
X0031505Y0107302D02*
X0030037Y0105100D01*
X0030037Y0107302D01*
X0029295Y0107302D02*
X0028194Y0107302D01*
X0027827Y0106935D01*
X0027827Y0105467D01*
X0028194Y0105100D01*
X0029295Y0105100D01*
X0029295Y0107302D01*
X0031505Y0107302D02*
X0031505Y0105100D01*
D12*
X0107627Y0040537D02*
X0107627Y0037467D01*
X0108394Y0036700D01*
X0109929Y0036700D01*
X0110696Y0037467D01*
X0109929Y0039002D02*
X0110696Y0039769D01*
X0110696Y0040537D01*
X0109929Y0041304D01*
X0108394Y0041304D01*
X0107627Y0040537D01*
X0107627Y0039002D02*
X0109929Y0039002D01*
X0112231Y0039002D02*
X0115300Y0039002D01*
X0112998Y0041304D01*
X0112998Y0036700D01*
X0145127Y0036700D02*
X0148196Y0036700D01*
X0146661Y0036700D02*
X0146661Y0041304D01*
X0148196Y0039769D01*
X0149731Y0039002D02*
X0152800Y0039002D01*
X0150498Y0041304D01*
X0150498Y0036700D01*
X0195127Y0036700D02*
X0198196Y0036700D01*
X0196661Y0036700D02*
X0196661Y0041304D01*
X0198196Y0039769D01*
X0199731Y0039769D02*
X0200498Y0039002D01*
X0199731Y0038235D01*
X0199731Y0037467D01*
X0200498Y0036700D01*
X0202033Y0036700D01*
X0202800Y0037467D01*
X0201265Y0039002D02*
X0200498Y0039002D01*
X0199731Y0039769D02*
X0199731Y0040537D01*
X0200498Y0041304D01*
X0202033Y0041304D01*
X0202800Y0040537D01*
X0209876Y0050200D02*
X0213346Y0050200D01*
X0213346Y0055404D01*
X0209876Y0055404D01*
X0211611Y0052802D02*
X0213346Y0052802D01*
X0215033Y0052802D02*
X0215033Y0051067D01*
X0215900Y0050200D01*
X0218502Y0050200D01*
X0218502Y0048465D02*
X0218502Y0053670D01*
X0215900Y0053670D01*
X0215033Y0052802D01*
X0220189Y0054537D02*
X0220189Y0055404D01*
X0220189Y0054537D02*
X0221924Y0052802D01*
X0221924Y0050200D01*
X0221924Y0052802D02*
X0223659Y0054537D01*
X0223659Y0055404D01*
X0225361Y0053670D02*
X0227096Y0053670D01*
X0226229Y0054537D02*
X0226229Y0051067D01*
X0225361Y0050200D01*
X0228783Y0051067D02*
X0228783Y0054537D01*
X0229650Y0055404D01*
X0231385Y0055404D01*
X0232253Y0054537D01*
X0232253Y0051067D01*
X0231385Y0050200D01*
X0229650Y0050200D01*
X0228783Y0051067D01*
X0233955Y0050200D02*
X0234823Y0051067D01*
X0234823Y0054537D01*
X0235690Y0053670D02*
X0233955Y0053670D01*
X0237377Y0054537D02*
X0237377Y0051067D01*
X0238244Y0050200D01*
X0239979Y0050200D01*
X0240847Y0051067D01*
X0240847Y0054537D01*
X0239979Y0055404D01*
X0238244Y0055404D01*
X0237377Y0054537D01*
X0242541Y0053670D02*
X0243409Y0053670D01*
X0245144Y0051935D01*
X0245144Y0050200D02*
X0245144Y0053670D01*
X0246830Y0054537D02*
X0246830Y0052802D01*
X0247698Y0051935D01*
X0250300Y0051935D01*
X0250300Y0050200D02*
X0250300Y0055404D01*
X0247698Y0055404D01*
X0246830Y0054537D01*
X0246661Y0041304D02*
X0246661Y0036700D01*
X0245127Y0036700D02*
X0248196Y0036700D01*
X0249731Y0036700D02*
X0252800Y0036700D01*
X0249731Y0039769D01*
X0249731Y0040537D01*
X0250498Y0041304D01*
X0252033Y0041304D01*
X0252800Y0040537D01*
X0248196Y0039769D02*
X0246661Y0041304D01*
X0295127Y0036700D02*
X0298196Y0036700D01*
X0296661Y0036700D02*
X0296661Y0041304D01*
X0298196Y0039769D01*
X0299731Y0036700D02*
X0302800Y0036700D01*
X0301265Y0036700D02*
X0301265Y0041304D01*
X0302800Y0039769D01*
X0349731Y0036700D02*
X0352800Y0036700D01*
X0351265Y0036700D02*
X0351265Y0041304D01*
X0352800Y0039769D01*
X0398200Y0197329D02*
X0398200Y0199631D01*
X0398967Y0200398D01*
X0399735Y0200398D01*
X0400502Y0199631D01*
X0400502Y0197329D01*
X0402804Y0197329D02*
X0402804Y0199631D01*
X0402037Y0200398D01*
X0401269Y0200398D01*
X0400502Y0199631D01*
X0400502Y0201933D02*
X0398967Y0201933D01*
X0398200Y0202700D01*
X0398200Y0204235D01*
X0398967Y0205002D01*
X0400502Y0205002D01*
X0401269Y0204235D01*
X0401269Y0202700D01*
X0400502Y0201933D01*
X0398967Y0206537D02*
X0398200Y0207304D01*
X0398200Y0209606D01*
X0400502Y0209606D01*
X0401269Y0208839D01*
X0401269Y0207304D01*
X0399735Y0207304D02*
X0399735Y0209606D01*
X0399735Y0211141D02*
X0401269Y0212676D01*
X0401269Y0213443D01*
X0400502Y0214978D02*
X0401269Y0215745D01*
X0401269Y0218047D01*
X0402804Y0218047D02*
X0398200Y0218047D01*
X0398200Y0215745D01*
X0398967Y0214978D01*
X0400502Y0214978D01*
X0401269Y0211141D02*
X0398200Y0211141D01*
X0399735Y0207304D02*
X0398967Y0206537D01*
X0398200Y0197329D02*
X0402804Y0197329D01*
X0402804Y0224185D02*
X0402804Y0224953D01*
X0398200Y0224953D01*
X0398200Y0225720D02*
X0398200Y0224185D01*
X0398967Y0227255D02*
X0398200Y0228022D01*
X0398200Y0230324D01*
X0400502Y0230324D01*
X0401269Y0229557D01*
X0401269Y0228022D01*
X0399735Y0228022D02*
X0399735Y0230324D01*
X0398967Y0231859D02*
X0398200Y0232626D01*
X0398200Y0234928D01*
X0397433Y0234928D02*
X0396665Y0234161D01*
X0396665Y0233393D01*
X0397433Y0234928D02*
X0401269Y0234928D01*
X0400502Y0236463D02*
X0398967Y0236463D01*
X0398200Y0237230D01*
X0398200Y0238764D01*
X0398967Y0239532D01*
X0400502Y0239532D01*
X0401269Y0238764D01*
X0401269Y0237230D01*
X0400502Y0236463D01*
X0401269Y0241066D02*
X0398967Y0241066D01*
X0398200Y0241834D01*
X0398200Y0244136D01*
X0401269Y0244136D01*
X0401269Y0245670D02*
X0401269Y0247205D01*
X0402037Y0246438D02*
X0398967Y0246438D01*
X0398200Y0247205D01*
X0398200Y0253344D02*
X0398200Y0255646D01*
X0398967Y0256413D01*
X0400502Y0256413D01*
X0401269Y0255646D01*
X0401269Y0253344D01*
X0402804Y0253344D02*
X0398200Y0253344D01*
X0398967Y0257948D02*
X0398200Y0258715D01*
X0398200Y0261017D01*
X0397433Y0261017D02*
X0396665Y0260249D01*
X0396665Y0259482D01*
X0397433Y0261017D02*
X0401269Y0261017D01*
X0401269Y0257948D02*
X0398967Y0257948D01*
X0398200Y0267155D02*
X0401269Y0267155D01*
X0402804Y0268690D01*
X0401269Y0270225D01*
X0398200Y0270225D01*
X0398200Y0271759D02*
X0398200Y0273294D01*
X0398200Y0272527D02*
X0402804Y0272527D01*
X0402804Y0271759D01*
X0400502Y0270225D02*
X0400502Y0267155D01*
X0400502Y0274829D02*
X0401269Y0275596D01*
X0401269Y0277131D01*
X0400502Y0277898D01*
X0399735Y0277898D01*
X0399735Y0274829D01*
X0400502Y0274829D02*
X0398967Y0274829D01*
X0398200Y0275596D01*
X0398200Y0277131D01*
X0398200Y0279432D02*
X0401269Y0282502D01*
X0400502Y0284036D02*
X0401269Y0284804D01*
X0401269Y0286338D01*
X0400502Y0287106D01*
X0399735Y0287106D01*
X0399735Y0284036D01*
X0400502Y0284036D02*
X0398967Y0284036D01*
X0398200Y0284804D01*
X0398200Y0286338D01*
X0398967Y0288640D02*
X0398200Y0289408D01*
X0398200Y0291710D01*
X0397433Y0291710D02*
X0396665Y0290942D01*
X0396665Y0290175D01*
X0397433Y0291710D02*
X0401269Y0291710D01*
X0401269Y0288640D02*
X0398967Y0288640D01*
X0398200Y0282502D02*
X0401269Y0279432D01*
X0399735Y0297848D02*
X0399735Y0300150D01*
X0400502Y0300917D01*
X0402037Y0300917D01*
X0402804Y0300150D01*
X0402804Y0297848D01*
X0398200Y0297848D01*
X0398967Y0302452D02*
X0398200Y0303219D01*
X0398200Y0304754D01*
X0398967Y0305521D01*
X0400502Y0305521D01*
X0401269Y0304754D01*
X0401269Y0303219D01*
X0400502Y0302452D01*
X0398967Y0302452D01*
X0398967Y0307056D02*
X0398200Y0307823D01*
X0398200Y0310125D01*
X0402804Y0310125D01*
X0401269Y0310125D02*
X0401269Y0307823D01*
X0400502Y0307056D01*
X0398967Y0307056D01*
X0398200Y0311660D02*
X0401269Y0311660D01*
X0399735Y0311660D02*
X0401269Y0313195D01*
X0401269Y0313962D01*
X0400502Y0315497D02*
X0401269Y0316264D01*
X0401269Y0317799D01*
X0400502Y0318566D01*
X0399735Y0318566D01*
X0399735Y0315497D01*
X0400502Y0315497D02*
X0398967Y0315497D01*
X0398200Y0316264D01*
X0398200Y0317799D01*
X0398200Y0320100D02*
X0398200Y0323170D01*
X0398967Y0324704D02*
X0398200Y0325472D01*
X0398200Y0327006D01*
X0398967Y0327774D01*
X0400502Y0327774D01*
X0401269Y0327006D01*
X0401269Y0325472D01*
X0400502Y0324704D01*
X0398967Y0324704D01*
X0401269Y0323170D02*
X0398200Y0320100D01*
X0401269Y0320100D02*
X0401269Y0323170D01*
X0401269Y0329308D02*
X0398200Y0330843D01*
X0401269Y0332378D01*
X0401269Y0338516D02*
X0402804Y0340051D01*
X0402037Y0341585D02*
X0402804Y0342353D01*
X0402804Y0343887D01*
X0402037Y0344655D01*
X0401269Y0344655D01*
X0398200Y0341585D01*
X0398200Y0344655D01*
X0398967Y0346189D02*
X0398200Y0346957D01*
X0398200Y0348491D01*
X0398967Y0349259D01*
X0402037Y0349259D01*
X0398967Y0346189D01*
X0402037Y0346189D01*
X0402804Y0346957D01*
X0402804Y0348491D01*
X0402037Y0349259D01*
X0401269Y0350793D02*
X0402804Y0352328D01*
X0398200Y0352328D01*
X0398200Y0350793D02*
X0398200Y0353863D01*
X0398200Y0355397D02*
X0398967Y0355397D01*
X0402037Y0358467D01*
X0402804Y0358467D01*
X0402804Y0355397D01*
X0402804Y0360001D02*
X0401269Y0361536D01*
X0399735Y0361536D01*
X0398200Y0360001D01*
X0398200Y0340051D02*
X0399735Y0338516D01*
X0401269Y0338516D01*
X0401269Y0231859D02*
X0398967Y0231859D01*
X0399735Y0228022D02*
X0398967Y0227255D01*
D13*
X0400650Y0112978D02*
X0403552Y0112978D01*
X0402101Y0112978D02*
X0402101Y0111043D01*
X0401617Y0110031D02*
X0401134Y0110031D01*
X0400650Y0109548D01*
X0400650Y0108580D01*
X0401134Y0108097D01*
X0402101Y0108580D02*
X0402101Y0109548D01*
X0401617Y0110031D01*
X0400650Y0111043D02*
X0403552Y0111043D01*
X0403069Y0110031D02*
X0403552Y0109548D01*
X0403552Y0108580D01*
X0403069Y0108097D01*
X0402585Y0108097D01*
X0402101Y0108580D01*
X0402101Y0107085D02*
X0402101Y0105150D01*
X0400650Y0105150D02*
X0403552Y0105150D01*
X0403552Y0107085D02*
X0400650Y0107085D01*
X0400650Y0440150D02*
X0403552Y0440150D01*
X0402101Y0440150D02*
X0402101Y0442085D01*
X0402585Y0443097D02*
X0402101Y0443580D01*
X0402101Y0444548D01*
X0401617Y0445031D01*
X0401134Y0445031D01*
X0400650Y0444548D01*
X0400650Y0443580D01*
X0401134Y0443097D01*
X0400650Y0442085D02*
X0403552Y0442085D01*
X0403069Y0443097D02*
X0402585Y0443097D01*
X0403069Y0443097D02*
X0403552Y0443580D01*
X0403552Y0444548D01*
X0403069Y0445031D01*
X0403552Y0446043D02*
X0400650Y0446043D01*
X0402101Y0446043D02*
X0402101Y0447978D01*
X0403552Y0447978D02*
X0400650Y0447978D01*
X0023552Y0447978D02*
X0020650Y0447978D01*
X0022101Y0447978D02*
X0022101Y0446043D01*
X0021617Y0445031D02*
X0021134Y0445031D01*
X0020650Y0444548D01*
X0020650Y0443580D01*
X0021134Y0443097D01*
X0022101Y0443580D02*
X0022101Y0444548D01*
X0021617Y0445031D01*
X0020650Y0446043D02*
X0023552Y0446043D01*
X0023069Y0445031D02*
X0023552Y0444548D01*
X0023552Y0443580D01*
X0023069Y0443097D01*
X0022585Y0443097D01*
X0022101Y0443580D01*
X0022101Y0442085D02*
X0022101Y0440150D01*
X0020650Y0440150D02*
X0023552Y0440150D01*
X0023552Y0442085D02*
X0020650Y0442085D01*
X0020650Y0112978D02*
X0023552Y0112978D01*
X0022101Y0112978D02*
X0022101Y0111043D01*
X0021617Y0110031D02*
X0021134Y0110031D01*
X0020650Y0109548D01*
X0020650Y0108580D01*
X0021134Y0108097D01*
X0022101Y0108580D02*
X0022101Y0109548D01*
X0021617Y0110031D01*
X0020650Y0111043D02*
X0023552Y0111043D01*
X0023069Y0110031D02*
X0023552Y0109548D01*
X0023552Y0108580D01*
X0023069Y0108097D01*
X0022585Y0108097D01*
X0022101Y0108580D01*
X0022101Y0107085D02*
X0022101Y0105150D01*
X0020650Y0105150D02*
X0023552Y0105150D01*
X0023552Y0107085D02*
X0020650Y0107085D01*
D14*
X0065469Y0093031D02*
X0065471Y0093185D01*
X0065477Y0093340D01*
X0065487Y0093494D01*
X0065501Y0093648D01*
X0065519Y0093801D01*
X0065540Y0093954D01*
X0065566Y0094107D01*
X0065596Y0094258D01*
X0065629Y0094409D01*
X0065667Y0094559D01*
X0065708Y0094708D01*
X0065753Y0094856D01*
X0065802Y0095002D01*
X0065855Y0095148D01*
X0065911Y0095291D01*
X0065971Y0095434D01*
X0066035Y0095574D01*
X0066102Y0095714D01*
X0066173Y0095851D01*
X0066247Y0095986D01*
X0066325Y0096120D01*
X0066406Y0096251D01*
X0066491Y0096380D01*
X0066579Y0096508D01*
X0066670Y0096632D01*
X0066764Y0096755D01*
X0066862Y0096875D01*
X0066962Y0096992D01*
X0067066Y0097107D01*
X0067172Y0097219D01*
X0067281Y0097328D01*
X0067393Y0097434D01*
X0067508Y0097538D01*
X0067625Y0097638D01*
X0067745Y0097736D01*
X0067868Y0097830D01*
X0067992Y0097921D01*
X0068120Y0098009D01*
X0068249Y0098094D01*
X0068380Y0098175D01*
X0068514Y0098253D01*
X0068649Y0098327D01*
X0068786Y0098398D01*
X0068926Y0098465D01*
X0069066Y0098529D01*
X0069209Y0098589D01*
X0069352Y0098645D01*
X0069498Y0098698D01*
X0069644Y0098747D01*
X0069792Y0098792D01*
X0069941Y0098833D01*
X0070091Y0098871D01*
X0070242Y0098904D01*
X0070393Y0098934D01*
X0070546Y0098960D01*
X0070699Y0098981D01*
X0070852Y0098999D01*
X0071006Y0099013D01*
X0071160Y0099023D01*
X0071315Y0099029D01*
X0071469Y0099031D01*
X0071623Y0099029D01*
X0071778Y0099023D01*
X0071932Y0099013D01*
X0072086Y0098999D01*
X0072239Y0098981D01*
X0072392Y0098960D01*
X0072545Y0098934D01*
X0072696Y0098904D01*
X0072847Y0098871D01*
X0072997Y0098833D01*
X0073146Y0098792D01*
X0073294Y0098747D01*
X0073440Y0098698D01*
X0073586Y0098645D01*
X0073729Y0098589D01*
X0073872Y0098529D01*
X0074012Y0098465D01*
X0074152Y0098398D01*
X0074289Y0098327D01*
X0074424Y0098253D01*
X0074558Y0098175D01*
X0074689Y0098094D01*
X0074818Y0098009D01*
X0074946Y0097921D01*
X0075070Y0097830D01*
X0075193Y0097736D01*
X0075313Y0097638D01*
X0075430Y0097538D01*
X0075545Y0097434D01*
X0075657Y0097328D01*
X0075766Y0097219D01*
X0075872Y0097107D01*
X0075976Y0096992D01*
X0076076Y0096875D01*
X0076174Y0096755D01*
X0076268Y0096632D01*
X0076359Y0096508D01*
X0076447Y0096380D01*
X0076532Y0096251D01*
X0076613Y0096120D01*
X0076691Y0095986D01*
X0076765Y0095851D01*
X0076836Y0095714D01*
X0076903Y0095574D01*
X0076967Y0095434D01*
X0077027Y0095291D01*
X0077083Y0095148D01*
X0077136Y0095002D01*
X0077185Y0094856D01*
X0077230Y0094708D01*
X0077271Y0094559D01*
X0077309Y0094409D01*
X0077342Y0094258D01*
X0077372Y0094107D01*
X0077398Y0093954D01*
X0077419Y0093801D01*
X0077437Y0093648D01*
X0077451Y0093494D01*
X0077461Y0093340D01*
X0077467Y0093185D01*
X0077469Y0093031D01*
X0077467Y0092877D01*
X0077461Y0092722D01*
X0077451Y0092568D01*
X0077437Y0092414D01*
X0077419Y0092261D01*
X0077398Y0092108D01*
X0077372Y0091955D01*
X0077342Y0091804D01*
X0077309Y0091653D01*
X0077271Y0091503D01*
X0077230Y0091354D01*
X0077185Y0091206D01*
X0077136Y0091060D01*
X0077083Y0090914D01*
X0077027Y0090771D01*
X0076967Y0090628D01*
X0076903Y0090488D01*
X0076836Y0090348D01*
X0076765Y0090211D01*
X0076691Y0090076D01*
X0076613Y0089942D01*
X0076532Y0089811D01*
X0076447Y0089682D01*
X0076359Y0089554D01*
X0076268Y0089430D01*
X0076174Y0089307D01*
X0076076Y0089187D01*
X0075976Y0089070D01*
X0075872Y0088955D01*
X0075766Y0088843D01*
X0075657Y0088734D01*
X0075545Y0088628D01*
X0075430Y0088524D01*
X0075313Y0088424D01*
X0075193Y0088326D01*
X0075070Y0088232D01*
X0074946Y0088141D01*
X0074818Y0088053D01*
X0074689Y0087968D01*
X0074558Y0087887D01*
X0074424Y0087809D01*
X0074289Y0087735D01*
X0074152Y0087664D01*
X0074012Y0087597D01*
X0073872Y0087533D01*
X0073729Y0087473D01*
X0073586Y0087417D01*
X0073440Y0087364D01*
X0073294Y0087315D01*
X0073146Y0087270D01*
X0072997Y0087229D01*
X0072847Y0087191D01*
X0072696Y0087158D01*
X0072545Y0087128D01*
X0072392Y0087102D01*
X0072239Y0087081D01*
X0072086Y0087063D01*
X0071932Y0087049D01*
X0071778Y0087039D01*
X0071623Y0087033D01*
X0071469Y0087031D01*
X0071315Y0087033D01*
X0071160Y0087039D01*
X0071006Y0087049D01*
X0070852Y0087063D01*
X0070699Y0087081D01*
X0070546Y0087102D01*
X0070393Y0087128D01*
X0070242Y0087158D01*
X0070091Y0087191D01*
X0069941Y0087229D01*
X0069792Y0087270D01*
X0069644Y0087315D01*
X0069498Y0087364D01*
X0069352Y0087417D01*
X0069209Y0087473D01*
X0069066Y0087533D01*
X0068926Y0087597D01*
X0068786Y0087664D01*
X0068649Y0087735D01*
X0068514Y0087809D01*
X0068380Y0087887D01*
X0068249Y0087968D01*
X0068120Y0088053D01*
X0067992Y0088141D01*
X0067868Y0088232D01*
X0067745Y0088326D01*
X0067625Y0088424D01*
X0067508Y0088524D01*
X0067393Y0088628D01*
X0067281Y0088734D01*
X0067172Y0088843D01*
X0067066Y0088955D01*
X0066962Y0089070D01*
X0066862Y0089187D01*
X0066764Y0089307D01*
X0066670Y0089430D01*
X0066579Y0089554D01*
X0066491Y0089682D01*
X0066406Y0089811D01*
X0066325Y0089942D01*
X0066247Y0090076D01*
X0066173Y0090211D01*
X0066102Y0090348D01*
X0066035Y0090488D01*
X0065971Y0090628D01*
X0065911Y0090771D01*
X0065855Y0090914D01*
X0065802Y0091060D01*
X0065753Y0091206D01*
X0065708Y0091354D01*
X0065667Y0091503D01*
X0065629Y0091653D01*
X0065596Y0091804D01*
X0065566Y0091955D01*
X0065540Y0092108D01*
X0065519Y0092261D01*
X0065501Y0092414D01*
X0065487Y0092568D01*
X0065477Y0092722D01*
X0065471Y0092877D01*
X0065469Y0093031D01*
X0101000Y0076000D02*
X0101000Y0056000D01*
X0101000Y0007500D01*
X0103500Y0005000D01*
X0357500Y0005000D01*
X0360000Y0007500D01*
X0360000Y0056000D01*
X0360000Y0076000D01*
X0385469Y0093031D02*
X0385471Y0093185D01*
X0385477Y0093340D01*
X0385487Y0093494D01*
X0385501Y0093648D01*
X0385519Y0093801D01*
X0385540Y0093954D01*
X0385566Y0094107D01*
X0385596Y0094258D01*
X0385629Y0094409D01*
X0385667Y0094559D01*
X0385708Y0094708D01*
X0385753Y0094856D01*
X0385802Y0095002D01*
X0385855Y0095148D01*
X0385911Y0095291D01*
X0385971Y0095434D01*
X0386035Y0095574D01*
X0386102Y0095714D01*
X0386173Y0095851D01*
X0386247Y0095986D01*
X0386325Y0096120D01*
X0386406Y0096251D01*
X0386491Y0096380D01*
X0386579Y0096508D01*
X0386670Y0096632D01*
X0386764Y0096755D01*
X0386862Y0096875D01*
X0386962Y0096992D01*
X0387066Y0097107D01*
X0387172Y0097219D01*
X0387281Y0097328D01*
X0387393Y0097434D01*
X0387508Y0097538D01*
X0387625Y0097638D01*
X0387745Y0097736D01*
X0387868Y0097830D01*
X0387992Y0097921D01*
X0388120Y0098009D01*
X0388249Y0098094D01*
X0388380Y0098175D01*
X0388514Y0098253D01*
X0388649Y0098327D01*
X0388786Y0098398D01*
X0388926Y0098465D01*
X0389066Y0098529D01*
X0389209Y0098589D01*
X0389352Y0098645D01*
X0389498Y0098698D01*
X0389644Y0098747D01*
X0389792Y0098792D01*
X0389941Y0098833D01*
X0390091Y0098871D01*
X0390242Y0098904D01*
X0390393Y0098934D01*
X0390546Y0098960D01*
X0390699Y0098981D01*
X0390852Y0098999D01*
X0391006Y0099013D01*
X0391160Y0099023D01*
X0391315Y0099029D01*
X0391469Y0099031D01*
X0391623Y0099029D01*
X0391778Y0099023D01*
X0391932Y0099013D01*
X0392086Y0098999D01*
X0392239Y0098981D01*
X0392392Y0098960D01*
X0392545Y0098934D01*
X0392696Y0098904D01*
X0392847Y0098871D01*
X0392997Y0098833D01*
X0393146Y0098792D01*
X0393294Y0098747D01*
X0393440Y0098698D01*
X0393586Y0098645D01*
X0393729Y0098589D01*
X0393872Y0098529D01*
X0394012Y0098465D01*
X0394152Y0098398D01*
X0394289Y0098327D01*
X0394424Y0098253D01*
X0394558Y0098175D01*
X0394689Y0098094D01*
X0394818Y0098009D01*
X0394946Y0097921D01*
X0395070Y0097830D01*
X0395193Y0097736D01*
X0395313Y0097638D01*
X0395430Y0097538D01*
X0395545Y0097434D01*
X0395657Y0097328D01*
X0395766Y0097219D01*
X0395872Y0097107D01*
X0395976Y0096992D01*
X0396076Y0096875D01*
X0396174Y0096755D01*
X0396268Y0096632D01*
X0396359Y0096508D01*
X0396447Y0096380D01*
X0396532Y0096251D01*
X0396613Y0096120D01*
X0396691Y0095986D01*
X0396765Y0095851D01*
X0396836Y0095714D01*
X0396903Y0095574D01*
X0396967Y0095434D01*
X0397027Y0095291D01*
X0397083Y0095148D01*
X0397136Y0095002D01*
X0397185Y0094856D01*
X0397230Y0094708D01*
X0397271Y0094559D01*
X0397309Y0094409D01*
X0397342Y0094258D01*
X0397372Y0094107D01*
X0397398Y0093954D01*
X0397419Y0093801D01*
X0397437Y0093648D01*
X0397451Y0093494D01*
X0397461Y0093340D01*
X0397467Y0093185D01*
X0397469Y0093031D01*
X0397467Y0092877D01*
X0397461Y0092722D01*
X0397451Y0092568D01*
X0397437Y0092414D01*
X0397419Y0092261D01*
X0397398Y0092108D01*
X0397372Y0091955D01*
X0397342Y0091804D01*
X0397309Y0091653D01*
X0397271Y0091503D01*
X0397230Y0091354D01*
X0397185Y0091206D01*
X0397136Y0091060D01*
X0397083Y0090914D01*
X0397027Y0090771D01*
X0396967Y0090628D01*
X0396903Y0090488D01*
X0396836Y0090348D01*
X0396765Y0090211D01*
X0396691Y0090076D01*
X0396613Y0089942D01*
X0396532Y0089811D01*
X0396447Y0089682D01*
X0396359Y0089554D01*
X0396268Y0089430D01*
X0396174Y0089307D01*
X0396076Y0089187D01*
X0395976Y0089070D01*
X0395872Y0088955D01*
X0395766Y0088843D01*
X0395657Y0088734D01*
X0395545Y0088628D01*
X0395430Y0088524D01*
X0395313Y0088424D01*
X0395193Y0088326D01*
X0395070Y0088232D01*
X0394946Y0088141D01*
X0394818Y0088053D01*
X0394689Y0087968D01*
X0394558Y0087887D01*
X0394424Y0087809D01*
X0394289Y0087735D01*
X0394152Y0087664D01*
X0394012Y0087597D01*
X0393872Y0087533D01*
X0393729Y0087473D01*
X0393586Y0087417D01*
X0393440Y0087364D01*
X0393294Y0087315D01*
X0393146Y0087270D01*
X0392997Y0087229D01*
X0392847Y0087191D01*
X0392696Y0087158D01*
X0392545Y0087128D01*
X0392392Y0087102D01*
X0392239Y0087081D01*
X0392086Y0087063D01*
X0391932Y0087049D01*
X0391778Y0087039D01*
X0391623Y0087033D01*
X0391469Y0087031D01*
X0391315Y0087033D01*
X0391160Y0087039D01*
X0391006Y0087049D01*
X0390852Y0087063D01*
X0390699Y0087081D01*
X0390546Y0087102D01*
X0390393Y0087128D01*
X0390242Y0087158D01*
X0390091Y0087191D01*
X0389941Y0087229D01*
X0389792Y0087270D01*
X0389644Y0087315D01*
X0389498Y0087364D01*
X0389352Y0087417D01*
X0389209Y0087473D01*
X0389066Y0087533D01*
X0388926Y0087597D01*
X0388786Y0087664D01*
X0388649Y0087735D01*
X0388514Y0087809D01*
X0388380Y0087887D01*
X0388249Y0087968D01*
X0388120Y0088053D01*
X0387992Y0088141D01*
X0387868Y0088232D01*
X0387745Y0088326D01*
X0387625Y0088424D01*
X0387508Y0088524D01*
X0387393Y0088628D01*
X0387281Y0088734D01*
X0387172Y0088843D01*
X0387066Y0088955D01*
X0386962Y0089070D01*
X0386862Y0089187D01*
X0386764Y0089307D01*
X0386670Y0089430D01*
X0386579Y0089554D01*
X0386491Y0089682D01*
X0386406Y0089811D01*
X0386325Y0089942D01*
X0386247Y0090076D01*
X0386173Y0090211D01*
X0386102Y0090348D01*
X0386035Y0090488D01*
X0385971Y0090628D01*
X0385911Y0090771D01*
X0385855Y0090914D01*
X0385802Y0091060D01*
X0385753Y0091206D01*
X0385708Y0091354D01*
X0385667Y0091503D01*
X0385629Y0091653D01*
X0385596Y0091804D01*
X0385566Y0091955D01*
X0385540Y0092108D01*
X0385519Y0092261D01*
X0385501Y0092414D01*
X0385487Y0092568D01*
X0385477Y0092722D01*
X0385471Y0092877D01*
X0385469Y0093031D01*
X0385563Y0471535D02*
X0385565Y0471688D01*
X0385571Y0471842D01*
X0385581Y0471995D01*
X0385595Y0472147D01*
X0385613Y0472300D01*
X0385635Y0472451D01*
X0385660Y0472602D01*
X0385690Y0472753D01*
X0385724Y0472903D01*
X0385761Y0473051D01*
X0385802Y0473199D01*
X0385847Y0473345D01*
X0385896Y0473491D01*
X0385949Y0473635D01*
X0386005Y0473777D01*
X0386065Y0473918D01*
X0386129Y0474058D01*
X0386196Y0474196D01*
X0386267Y0474332D01*
X0386342Y0474466D01*
X0386419Y0474598D01*
X0386501Y0474728D01*
X0386585Y0474856D01*
X0386673Y0474982D01*
X0386764Y0475105D01*
X0386858Y0475226D01*
X0386956Y0475344D01*
X0387056Y0475460D01*
X0387160Y0475573D01*
X0387266Y0475684D01*
X0387375Y0475792D01*
X0387487Y0475897D01*
X0387601Y0475998D01*
X0387719Y0476097D01*
X0387838Y0476193D01*
X0387960Y0476286D01*
X0388085Y0476375D01*
X0388212Y0476462D01*
X0388341Y0476544D01*
X0388472Y0476624D01*
X0388605Y0476700D01*
X0388740Y0476773D01*
X0388877Y0476842D01*
X0389016Y0476907D01*
X0389156Y0476969D01*
X0389298Y0477027D01*
X0389441Y0477082D01*
X0389586Y0477133D01*
X0389732Y0477180D01*
X0389879Y0477223D01*
X0390027Y0477262D01*
X0390176Y0477298D01*
X0390326Y0477329D01*
X0390477Y0477357D01*
X0390628Y0477381D01*
X0390781Y0477401D01*
X0390933Y0477417D01*
X0391086Y0477429D01*
X0391239Y0477437D01*
X0391392Y0477441D01*
X0391546Y0477441D01*
X0391699Y0477437D01*
X0391852Y0477429D01*
X0392005Y0477417D01*
X0392157Y0477401D01*
X0392310Y0477381D01*
X0392461Y0477357D01*
X0392612Y0477329D01*
X0392762Y0477298D01*
X0392911Y0477262D01*
X0393059Y0477223D01*
X0393206Y0477180D01*
X0393352Y0477133D01*
X0393497Y0477082D01*
X0393640Y0477027D01*
X0393782Y0476969D01*
X0393922Y0476907D01*
X0394061Y0476842D01*
X0394198Y0476773D01*
X0394333Y0476700D01*
X0394466Y0476624D01*
X0394597Y0476544D01*
X0394726Y0476462D01*
X0394853Y0476375D01*
X0394978Y0476286D01*
X0395100Y0476193D01*
X0395219Y0476097D01*
X0395337Y0475998D01*
X0395451Y0475897D01*
X0395563Y0475792D01*
X0395672Y0475684D01*
X0395778Y0475573D01*
X0395882Y0475460D01*
X0395982Y0475344D01*
X0396080Y0475226D01*
X0396174Y0475105D01*
X0396265Y0474982D01*
X0396353Y0474856D01*
X0396437Y0474728D01*
X0396519Y0474598D01*
X0396596Y0474466D01*
X0396671Y0474332D01*
X0396742Y0474196D01*
X0396809Y0474058D01*
X0396873Y0473918D01*
X0396933Y0473777D01*
X0396989Y0473635D01*
X0397042Y0473491D01*
X0397091Y0473345D01*
X0397136Y0473199D01*
X0397177Y0473051D01*
X0397214Y0472903D01*
X0397248Y0472753D01*
X0397278Y0472602D01*
X0397303Y0472451D01*
X0397325Y0472300D01*
X0397343Y0472147D01*
X0397357Y0471995D01*
X0397367Y0471842D01*
X0397373Y0471688D01*
X0397375Y0471535D01*
X0397373Y0471382D01*
X0397367Y0471228D01*
X0397357Y0471075D01*
X0397343Y0470923D01*
X0397325Y0470770D01*
X0397303Y0470619D01*
X0397278Y0470468D01*
X0397248Y0470317D01*
X0397214Y0470167D01*
X0397177Y0470019D01*
X0397136Y0469871D01*
X0397091Y0469725D01*
X0397042Y0469579D01*
X0396989Y0469435D01*
X0396933Y0469293D01*
X0396873Y0469152D01*
X0396809Y0469012D01*
X0396742Y0468874D01*
X0396671Y0468738D01*
X0396596Y0468604D01*
X0396519Y0468472D01*
X0396437Y0468342D01*
X0396353Y0468214D01*
X0396265Y0468088D01*
X0396174Y0467965D01*
X0396080Y0467844D01*
X0395982Y0467726D01*
X0395882Y0467610D01*
X0395778Y0467497D01*
X0395672Y0467386D01*
X0395563Y0467278D01*
X0395451Y0467173D01*
X0395337Y0467072D01*
X0395219Y0466973D01*
X0395100Y0466877D01*
X0394978Y0466784D01*
X0394853Y0466695D01*
X0394726Y0466608D01*
X0394597Y0466526D01*
X0394466Y0466446D01*
X0394333Y0466370D01*
X0394198Y0466297D01*
X0394061Y0466228D01*
X0393922Y0466163D01*
X0393782Y0466101D01*
X0393640Y0466043D01*
X0393497Y0465988D01*
X0393352Y0465937D01*
X0393206Y0465890D01*
X0393059Y0465847D01*
X0392911Y0465808D01*
X0392762Y0465772D01*
X0392612Y0465741D01*
X0392461Y0465713D01*
X0392310Y0465689D01*
X0392157Y0465669D01*
X0392005Y0465653D01*
X0391852Y0465641D01*
X0391699Y0465633D01*
X0391546Y0465629D01*
X0391392Y0465629D01*
X0391239Y0465633D01*
X0391086Y0465641D01*
X0390933Y0465653D01*
X0390781Y0465669D01*
X0390628Y0465689D01*
X0390477Y0465713D01*
X0390326Y0465741D01*
X0390176Y0465772D01*
X0390027Y0465808D01*
X0389879Y0465847D01*
X0389732Y0465890D01*
X0389586Y0465937D01*
X0389441Y0465988D01*
X0389298Y0466043D01*
X0389156Y0466101D01*
X0389016Y0466163D01*
X0388877Y0466228D01*
X0388740Y0466297D01*
X0388605Y0466370D01*
X0388472Y0466446D01*
X0388341Y0466526D01*
X0388212Y0466608D01*
X0388085Y0466695D01*
X0387960Y0466784D01*
X0387838Y0466877D01*
X0387719Y0466973D01*
X0387601Y0467072D01*
X0387487Y0467173D01*
X0387375Y0467278D01*
X0387266Y0467386D01*
X0387160Y0467497D01*
X0387056Y0467610D01*
X0386956Y0467726D01*
X0386858Y0467844D01*
X0386764Y0467965D01*
X0386673Y0468088D01*
X0386585Y0468214D01*
X0386501Y0468342D01*
X0386419Y0468472D01*
X0386342Y0468604D01*
X0386267Y0468738D01*
X0386196Y0468874D01*
X0386129Y0469012D01*
X0386065Y0469152D01*
X0386005Y0469293D01*
X0385949Y0469435D01*
X0385896Y0469579D01*
X0385847Y0469725D01*
X0385802Y0469871D01*
X0385761Y0470019D01*
X0385724Y0470167D01*
X0385690Y0470317D01*
X0385660Y0470468D01*
X0385635Y0470619D01*
X0385613Y0470770D01*
X0385595Y0470923D01*
X0385581Y0471075D01*
X0385571Y0471228D01*
X0385565Y0471382D01*
X0385563Y0471535D01*
X0337272Y0471535D02*
X0337274Y0471728D01*
X0337281Y0471921D01*
X0337293Y0472114D01*
X0337310Y0472307D01*
X0337331Y0472499D01*
X0337357Y0472690D01*
X0337388Y0472881D01*
X0337423Y0473071D01*
X0337463Y0473260D01*
X0337508Y0473448D01*
X0337557Y0473635D01*
X0337611Y0473821D01*
X0337669Y0474005D01*
X0337732Y0474188D01*
X0337800Y0474369D01*
X0337871Y0474548D01*
X0337948Y0474726D01*
X0338028Y0474902D01*
X0338113Y0475075D01*
X0338202Y0475247D01*
X0338295Y0475416D01*
X0338392Y0475583D01*
X0338494Y0475748D01*
X0338599Y0475910D01*
X0338708Y0476069D01*
X0338822Y0476226D01*
X0338939Y0476379D01*
X0339059Y0476530D01*
X0339184Y0476678D01*
X0339312Y0476823D01*
X0339443Y0476964D01*
X0339578Y0477103D01*
X0339717Y0477238D01*
X0339858Y0477369D01*
X0340003Y0477497D01*
X0340151Y0477622D01*
X0340302Y0477742D01*
X0340455Y0477859D01*
X0340612Y0477973D01*
X0340771Y0478082D01*
X0340933Y0478187D01*
X0341098Y0478289D01*
X0341265Y0478386D01*
X0341434Y0478479D01*
X0341606Y0478568D01*
X0341779Y0478653D01*
X0341955Y0478733D01*
X0342133Y0478810D01*
X0342312Y0478881D01*
X0342493Y0478949D01*
X0342676Y0479012D01*
X0342860Y0479070D01*
X0343046Y0479124D01*
X0343233Y0479173D01*
X0343421Y0479218D01*
X0343610Y0479258D01*
X0343800Y0479293D01*
X0343991Y0479324D01*
X0344182Y0479350D01*
X0344374Y0479371D01*
X0344567Y0479388D01*
X0344760Y0479400D01*
X0344953Y0479407D01*
X0345146Y0479409D01*
X0345339Y0479407D01*
X0345532Y0479400D01*
X0345725Y0479388D01*
X0345918Y0479371D01*
X0346110Y0479350D01*
X0346301Y0479324D01*
X0346492Y0479293D01*
X0346682Y0479258D01*
X0346871Y0479218D01*
X0347059Y0479173D01*
X0347246Y0479124D01*
X0347432Y0479070D01*
X0347616Y0479012D01*
X0347799Y0478949D01*
X0347980Y0478881D01*
X0348159Y0478810D01*
X0348337Y0478733D01*
X0348513Y0478653D01*
X0348686Y0478568D01*
X0348858Y0478479D01*
X0349027Y0478386D01*
X0349194Y0478289D01*
X0349359Y0478187D01*
X0349521Y0478082D01*
X0349680Y0477973D01*
X0349837Y0477859D01*
X0349990Y0477742D01*
X0350141Y0477622D01*
X0350289Y0477497D01*
X0350434Y0477369D01*
X0350575Y0477238D01*
X0350714Y0477103D01*
X0350849Y0476964D01*
X0350980Y0476823D01*
X0351108Y0476678D01*
X0351233Y0476530D01*
X0351353Y0476379D01*
X0351470Y0476226D01*
X0351584Y0476069D01*
X0351693Y0475910D01*
X0351798Y0475748D01*
X0351900Y0475583D01*
X0351997Y0475416D01*
X0352090Y0475247D01*
X0352179Y0475075D01*
X0352264Y0474902D01*
X0352344Y0474726D01*
X0352421Y0474548D01*
X0352492Y0474369D01*
X0352560Y0474188D01*
X0352623Y0474005D01*
X0352681Y0473821D01*
X0352735Y0473635D01*
X0352784Y0473448D01*
X0352829Y0473260D01*
X0352869Y0473071D01*
X0352904Y0472881D01*
X0352935Y0472690D01*
X0352961Y0472499D01*
X0352982Y0472307D01*
X0352999Y0472114D01*
X0353011Y0471921D01*
X0353018Y0471728D01*
X0353020Y0471535D01*
X0353018Y0471342D01*
X0353011Y0471149D01*
X0352999Y0470956D01*
X0352982Y0470763D01*
X0352961Y0470571D01*
X0352935Y0470380D01*
X0352904Y0470189D01*
X0352869Y0469999D01*
X0352829Y0469810D01*
X0352784Y0469622D01*
X0352735Y0469435D01*
X0352681Y0469249D01*
X0352623Y0469065D01*
X0352560Y0468882D01*
X0352492Y0468701D01*
X0352421Y0468522D01*
X0352344Y0468344D01*
X0352264Y0468168D01*
X0352179Y0467995D01*
X0352090Y0467823D01*
X0351997Y0467654D01*
X0351900Y0467487D01*
X0351798Y0467322D01*
X0351693Y0467160D01*
X0351584Y0467001D01*
X0351470Y0466844D01*
X0351353Y0466691D01*
X0351233Y0466540D01*
X0351108Y0466392D01*
X0350980Y0466247D01*
X0350849Y0466106D01*
X0350714Y0465967D01*
X0350575Y0465832D01*
X0350434Y0465701D01*
X0350289Y0465573D01*
X0350141Y0465448D01*
X0349990Y0465328D01*
X0349837Y0465211D01*
X0349680Y0465097D01*
X0349521Y0464988D01*
X0349359Y0464883D01*
X0349194Y0464781D01*
X0349027Y0464684D01*
X0348858Y0464591D01*
X0348686Y0464502D01*
X0348513Y0464417D01*
X0348337Y0464337D01*
X0348159Y0464260D01*
X0347980Y0464189D01*
X0347799Y0464121D01*
X0347616Y0464058D01*
X0347432Y0464000D01*
X0347246Y0463946D01*
X0347059Y0463897D01*
X0346871Y0463852D01*
X0346682Y0463812D01*
X0346492Y0463777D01*
X0346301Y0463746D01*
X0346110Y0463720D01*
X0345918Y0463699D01*
X0345725Y0463682D01*
X0345532Y0463670D01*
X0345339Y0463663D01*
X0345146Y0463661D01*
X0344953Y0463663D01*
X0344760Y0463670D01*
X0344567Y0463682D01*
X0344374Y0463699D01*
X0344182Y0463720D01*
X0343991Y0463746D01*
X0343800Y0463777D01*
X0343610Y0463812D01*
X0343421Y0463852D01*
X0343233Y0463897D01*
X0343046Y0463946D01*
X0342860Y0464000D01*
X0342676Y0464058D01*
X0342493Y0464121D01*
X0342312Y0464189D01*
X0342133Y0464260D01*
X0341955Y0464337D01*
X0341779Y0464417D01*
X0341606Y0464502D01*
X0341434Y0464591D01*
X0341265Y0464684D01*
X0341098Y0464781D01*
X0340933Y0464883D01*
X0340771Y0464988D01*
X0340612Y0465097D01*
X0340455Y0465211D01*
X0340302Y0465328D01*
X0340151Y0465448D01*
X0340003Y0465573D01*
X0339858Y0465701D01*
X0339717Y0465832D01*
X0339578Y0465967D01*
X0339443Y0466106D01*
X0339312Y0466247D01*
X0339184Y0466392D01*
X0339059Y0466540D01*
X0338939Y0466691D01*
X0338822Y0466844D01*
X0338708Y0467001D01*
X0338599Y0467160D01*
X0338494Y0467322D01*
X0338392Y0467487D01*
X0338295Y0467654D01*
X0338202Y0467823D01*
X0338113Y0467995D01*
X0338028Y0468168D01*
X0337948Y0468344D01*
X0337871Y0468522D01*
X0337800Y0468701D01*
X0337732Y0468882D01*
X0337669Y0469065D01*
X0337611Y0469249D01*
X0337557Y0469435D01*
X0337508Y0469622D01*
X0337463Y0469810D01*
X0337423Y0469999D01*
X0337388Y0470189D01*
X0337357Y0470380D01*
X0337331Y0470571D01*
X0337310Y0470763D01*
X0337293Y0470956D01*
X0337281Y0471149D01*
X0337274Y0471342D01*
X0337272Y0471535D01*
X0026248Y0471535D02*
X0026250Y0471728D01*
X0026257Y0471921D01*
X0026269Y0472114D01*
X0026286Y0472307D01*
X0026307Y0472499D01*
X0026333Y0472690D01*
X0026364Y0472881D01*
X0026399Y0473071D01*
X0026439Y0473260D01*
X0026484Y0473448D01*
X0026533Y0473635D01*
X0026587Y0473821D01*
X0026645Y0474005D01*
X0026708Y0474188D01*
X0026776Y0474369D01*
X0026847Y0474548D01*
X0026924Y0474726D01*
X0027004Y0474902D01*
X0027089Y0475075D01*
X0027178Y0475247D01*
X0027271Y0475416D01*
X0027368Y0475583D01*
X0027470Y0475748D01*
X0027575Y0475910D01*
X0027684Y0476069D01*
X0027798Y0476226D01*
X0027915Y0476379D01*
X0028035Y0476530D01*
X0028160Y0476678D01*
X0028288Y0476823D01*
X0028419Y0476964D01*
X0028554Y0477103D01*
X0028693Y0477238D01*
X0028834Y0477369D01*
X0028979Y0477497D01*
X0029127Y0477622D01*
X0029278Y0477742D01*
X0029431Y0477859D01*
X0029588Y0477973D01*
X0029747Y0478082D01*
X0029909Y0478187D01*
X0030074Y0478289D01*
X0030241Y0478386D01*
X0030410Y0478479D01*
X0030582Y0478568D01*
X0030755Y0478653D01*
X0030931Y0478733D01*
X0031109Y0478810D01*
X0031288Y0478881D01*
X0031469Y0478949D01*
X0031652Y0479012D01*
X0031836Y0479070D01*
X0032022Y0479124D01*
X0032209Y0479173D01*
X0032397Y0479218D01*
X0032586Y0479258D01*
X0032776Y0479293D01*
X0032967Y0479324D01*
X0033158Y0479350D01*
X0033350Y0479371D01*
X0033543Y0479388D01*
X0033736Y0479400D01*
X0033929Y0479407D01*
X0034122Y0479409D01*
X0034315Y0479407D01*
X0034508Y0479400D01*
X0034701Y0479388D01*
X0034894Y0479371D01*
X0035086Y0479350D01*
X0035277Y0479324D01*
X0035468Y0479293D01*
X0035658Y0479258D01*
X0035847Y0479218D01*
X0036035Y0479173D01*
X0036222Y0479124D01*
X0036408Y0479070D01*
X0036592Y0479012D01*
X0036775Y0478949D01*
X0036956Y0478881D01*
X0037135Y0478810D01*
X0037313Y0478733D01*
X0037489Y0478653D01*
X0037662Y0478568D01*
X0037834Y0478479D01*
X0038003Y0478386D01*
X0038170Y0478289D01*
X0038335Y0478187D01*
X0038497Y0478082D01*
X0038656Y0477973D01*
X0038813Y0477859D01*
X0038966Y0477742D01*
X0039117Y0477622D01*
X0039265Y0477497D01*
X0039410Y0477369D01*
X0039551Y0477238D01*
X0039690Y0477103D01*
X0039825Y0476964D01*
X0039956Y0476823D01*
X0040084Y0476678D01*
X0040209Y0476530D01*
X0040329Y0476379D01*
X0040446Y0476226D01*
X0040560Y0476069D01*
X0040669Y0475910D01*
X0040774Y0475748D01*
X0040876Y0475583D01*
X0040973Y0475416D01*
X0041066Y0475247D01*
X0041155Y0475075D01*
X0041240Y0474902D01*
X0041320Y0474726D01*
X0041397Y0474548D01*
X0041468Y0474369D01*
X0041536Y0474188D01*
X0041599Y0474005D01*
X0041657Y0473821D01*
X0041711Y0473635D01*
X0041760Y0473448D01*
X0041805Y0473260D01*
X0041845Y0473071D01*
X0041880Y0472881D01*
X0041911Y0472690D01*
X0041937Y0472499D01*
X0041958Y0472307D01*
X0041975Y0472114D01*
X0041987Y0471921D01*
X0041994Y0471728D01*
X0041996Y0471535D01*
X0041994Y0471342D01*
X0041987Y0471149D01*
X0041975Y0470956D01*
X0041958Y0470763D01*
X0041937Y0470571D01*
X0041911Y0470380D01*
X0041880Y0470189D01*
X0041845Y0469999D01*
X0041805Y0469810D01*
X0041760Y0469622D01*
X0041711Y0469435D01*
X0041657Y0469249D01*
X0041599Y0469065D01*
X0041536Y0468882D01*
X0041468Y0468701D01*
X0041397Y0468522D01*
X0041320Y0468344D01*
X0041240Y0468168D01*
X0041155Y0467995D01*
X0041066Y0467823D01*
X0040973Y0467654D01*
X0040876Y0467487D01*
X0040774Y0467322D01*
X0040669Y0467160D01*
X0040560Y0467001D01*
X0040446Y0466844D01*
X0040329Y0466691D01*
X0040209Y0466540D01*
X0040084Y0466392D01*
X0039956Y0466247D01*
X0039825Y0466106D01*
X0039690Y0465967D01*
X0039551Y0465832D01*
X0039410Y0465701D01*
X0039265Y0465573D01*
X0039117Y0465448D01*
X0038966Y0465328D01*
X0038813Y0465211D01*
X0038656Y0465097D01*
X0038497Y0464988D01*
X0038335Y0464883D01*
X0038170Y0464781D01*
X0038003Y0464684D01*
X0037834Y0464591D01*
X0037662Y0464502D01*
X0037489Y0464417D01*
X0037313Y0464337D01*
X0037135Y0464260D01*
X0036956Y0464189D01*
X0036775Y0464121D01*
X0036592Y0464058D01*
X0036408Y0464000D01*
X0036222Y0463946D01*
X0036035Y0463897D01*
X0035847Y0463852D01*
X0035658Y0463812D01*
X0035468Y0463777D01*
X0035277Y0463746D01*
X0035086Y0463720D01*
X0034894Y0463699D01*
X0034701Y0463682D01*
X0034508Y0463670D01*
X0034315Y0463663D01*
X0034122Y0463661D01*
X0033929Y0463663D01*
X0033736Y0463670D01*
X0033543Y0463682D01*
X0033350Y0463699D01*
X0033158Y0463720D01*
X0032967Y0463746D01*
X0032776Y0463777D01*
X0032586Y0463812D01*
X0032397Y0463852D01*
X0032209Y0463897D01*
X0032022Y0463946D01*
X0031836Y0464000D01*
X0031652Y0464058D01*
X0031469Y0464121D01*
X0031288Y0464189D01*
X0031109Y0464260D01*
X0030931Y0464337D01*
X0030755Y0464417D01*
X0030582Y0464502D01*
X0030410Y0464591D01*
X0030241Y0464684D01*
X0030074Y0464781D01*
X0029909Y0464883D01*
X0029747Y0464988D01*
X0029588Y0465097D01*
X0029431Y0465211D01*
X0029278Y0465328D01*
X0029127Y0465448D01*
X0028979Y0465573D01*
X0028834Y0465701D01*
X0028693Y0465832D01*
X0028554Y0465967D01*
X0028419Y0466106D01*
X0028288Y0466247D01*
X0028160Y0466392D01*
X0028035Y0466540D01*
X0027915Y0466691D01*
X0027798Y0466844D01*
X0027684Y0467001D01*
X0027575Y0467160D01*
X0027470Y0467322D01*
X0027368Y0467487D01*
X0027271Y0467654D01*
X0027178Y0467823D01*
X0027089Y0467995D01*
X0027004Y0468168D01*
X0026924Y0468344D01*
X0026847Y0468522D01*
X0026776Y0468701D01*
X0026708Y0468882D01*
X0026645Y0469065D01*
X0026587Y0469249D01*
X0026533Y0469435D01*
X0026484Y0469622D01*
X0026439Y0469810D01*
X0026399Y0469999D01*
X0026364Y0470189D01*
X0026333Y0470380D01*
X0026307Y0470571D01*
X0026286Y0470763D01*
X0026269Y0470956D01*
X0026257Y0471149D01*
X0026250Y0471342D01*
X0026248Y0471535D01*
D15*
X0096575Y0478068D02*
X0102113Y0478068D01*
X0102113Y0479452D02*
X0100728Y0480837D01*
X0097959Y0480837D01*
X0096575Y0479452D01*
X0096575Y0478068D01*
X0097959Y0475299D02*
X0100728Y0475299D01*
X0102113Y0476683D01*
X0102113Y0479452D01*
X0104862Y0479452D02*
X0104862Y0476683D01*
X0106246Y0475299D01*
X0110400Y0475299D01*
X0113149Y0475299D02*
X0117302Y0475299D01*
X0118687Y0476683D01*
X0118687Y0480837D01*
X0121443Y0480837D02*
X0124212Y0480837D01*
X0122827Y0482221D02*
X0122827Y0476683D01*
X0121443Y0475299D01*
X0126961Y0476683D02*
X0126961Y0479452D01*
X0128345Y0480837D01*
X0131114Y0480837D01*
X0132499Y0479452D01*
X0132499Y0476683D01*
X0131114Y0475299D01*
X0128345Y0475299D01*
X0126961Y0476683D01*
X0135254Y0475299D02*
X0136639Y0476683D01*
X0136639Y0482221D01*
X0138023Y0480837D02*
X0135254Y0480837D01*
X0140772Y0479452D02*
X0142157Y0480837D01*
X0144926Y0480837D01*
X0146310Y0479452D01*
X0146310Y0476683D01*
X0144926Y0475299D01*
X0142157Y0475299D01*
X0140772Y0476683D01*
X0140772Y0479452D01*
X0149063Y0480837D02*
X0150447Y0480837D01*
X0153216Y0478068D01*
X0153216Y0475299D02*
X0153216Y0480837D01*
X0155965Y0482221D02*
X0155965Y0479452D01*
X0157350Y0478068D01*
X0161503Y0478068D01*
X0161503Y0475299D02*
X0161503Y0483606D01*
X0157350Y0483606D01*
X0155965Y0482221D01*
X0172540Y0480837D02*
X0176693Y0480837D01*
X0178078Y0479452D01*
X0178078Y0476683D01*
X0176693Y0475299D01*
X0172540Y0475299D01*
X0172540Y0483606D01*
X0180830Y0480837D02*
X0182214Y0480837D01*
X0184984Y0478068D01*
X0187733Y0478068D02*
X0191886Y0478068D01*
X0193271Y0476683D01*
X0191886Y0475299D01*
X0187733Y0475299D01*
X0187733Y0479452D01*
X0189117Y0480837D01*
X0191886Y0480837D01*
X0196020Y0479452D02*
X0197404Y0480837D01*
X0200173Y0480837D01*
X0201558Y0479452D01*
X0201558Y0476683D01*
X0200173Y0475299D01*
X0197404Y0475299D01*
X0196020Y0476683D01*
X0196020Y0479452D01*
X0204307Y0478068D02*
X0204307Y0476683D01*
X0205691Y0475299D01*
X0209845Y0475299D01*
X0209845Y0483606D01*
X0205691Y0483606D01*
X0204307Y0482221D01*
X0204307Y0480837D01*
X0205691Y0479452D01*
X0209845Y0479452D01*
X0205691Y0479452D02*
X0204307Y0478068D01*
X0220881Y0478068D02*
X0226419Y0478068D01*
X0226419Y0479452D02*
X0225034Y0480837D01*
X0222265Y0480837D01*
X0220881Y0479452D01*
X0220881Y0478068D01*
X0222265Y0475299D02*
X0225034Y0475299D01*
X0226419Y0476683D01*
X0226419Y0479452D01*
X0229168Y0480837D02*
X0229168Y0473914D01*
X0230552Y0472530D01*
X0231937Y0472530D01*
X0233321Y0475299D02*
X0229168Y0475299D01*
X0233321Y0475299D02*
X0234706Y0476683D01*
X0234706Y0479452D01*
X0233321Y0480837D01*
X0229168Y0480837D01*
X0237455Y0480837D02*
X0241609Y0480837D01*
X0242993Y0479452D01*
X0242993Y0476683D01*
X0241609Y0475299D01*
X0237455Y0475299D01*
X0237455Y0483606D01*
X0245749Y0475299D02*
X0248518Y0475299D01*
X0247133Y0475299D02*
X0247133Y0480837D01*
X0248518Y0480837D01*
X0251270Y0480837D02*
X0252655Y0480837D01*
X0255424Y0478068D01*
X0255424Y0475299D02*
X0255424Y0480837D01*
X0258179Y0480837D02*
X0260948Y0480837D01*
X0259564Y0482221D02*
X0259564Y0476683D01*
X0258179Y0475299D01*
X0263701Y0480837D02*
X0265085Y0480837D01*
X0267854Y0478068D01*
X0270603Y0478068D02*
X0274757Y0478068D01*
X0276141Y0476683D01*
X0274757Y0475299D01*
X0270603Y0475299D01*
X0270603Y0479452D01*
X0271988Y0480837D01*
X0274757Y0480837D01*
X0278890Y0482221D02*
X0280275Y0483606D01*
X0283044Y0483606D01*
X0284428Y0482221D01*
X0284428Y0476683D01*
X0283044Y0475299D01*
X0280275Y0475299D01*
X0278890Y0476683D01*
X0267854Y0475299D02*
X0267854Y0480837D01*
X0247133Y0483606D02*
X0247133Y0484990D01*
X0295465Y0483606D02*
X0301003Y0475299D01*
X0303752Y0476683D02*
X0305136Y0475299D01*
X0307905Y0475299D01*
X0309290Y0476683D01*
X0312039Y0475299D02*
X0312039Y0483606D01*
X0314808Y0480837D01*
X0317577Y0483606D01*
X0317577Y0475299D01*
X0309290Y0480837D02*
X0307905Y0479452D01*
X0305136Y0479452D01*
X0303752Y0478068D01*
X0303752Y0476683D01*
X0303752Y0482221D02*
X0305136Y0483606D01*
X0307905Y0483606D01*
X0309290Y0482221D01*
X0309290Y0480837D01*
X0301003Y0483606D02*
X0295465Y0475299D01*
X0184984Y0475299D02*
X0184984Y0480837D01*
X0115918Y0472530D02*
X0114533Y0472530D01*
X0113149Y0473914D01*
X0113149Y0480837D01*
X0110400Y0480837D02*
X0106246Y0480837D01*
X0104862Y0479452D01*
X0110400Y0480837D02*
X0110400Y0472530D01*
D16*
X0023255Y0309184D02*
X0017750Y0309184D01*
X0017750Y0307349D02*
X0017750Y0311019D01*
X0021420Y0307349D02*
X0023255Y0309184D01*
X0018667Y0305504D02*
X0017750Y0305504D01*
X0017750Y0304586D01*
X0018667Y0304586D01*
X0018667Y0305504D01*
X0017750Y0302732D02*
X0017750Y0299062D01*
X0017750Y0300897D02*
X0023255Y0300897D01*
X0021420Y0299062D01*
X0020502Y0291682D02*
X0017750Y0291682D01*
X0020502Y0291682D02*
X0021420Y0290765D01*
X0021420Y0288012D01*
X0017750Y0288012D01*
X0018667Y0286157D02*
X0020502Y0286157D01*
X0021420Y0285240D01*
X0021420Y0283405D01*
X0020502Y0282488D01*
X0018667Y0282488D01*
X0017750Y0283405D01*
X0017750Y0285240D01*
X0018667Y0286157D01*
X0017750Y0280639D02*
X0017750Y0278804D01*
X0017750Y0279722D02*
X0021420Y0279722D01*
X0021420Y0278804D01*
X0021420Y0276950D02*
X0021420Y0274197D01*
X0020502Y0273280D01*
X0019585Y0274197D01*
X0019585Y0276032D01*
X0018667Y0276950D01*
X0017750Y0276032D01*
X0017750Y0273280D01*
X0021420Y0271428D02*
X0021420Y0270511D01*
X0019585Y0268676D01*
X0017750Y0268676D02*
X0021420Y0268676D01*
X0020502Y0266821D02*
X0019585Y0266821D01*
X0019585Y0263151D01*
X0020502Y0263151D02*
X0021420Y0264069D01*
X0021420Y0265903D01*
X0020502Y0266821D01*
X0017750Y0265903D02*
X0017750Y0264069D01*
X0018667Y0263151D01*
X0020502Y0263151D01*
X0019585Y0261296D02*
X0023255Y0261296D01*
X0023255Y0257626D02*
X0019585Y0257626D01*
X0017750Y0259461D01*
X0019585Y0261296D01*
X0023255Y0279722D02*
X0024172Y0279722D01*
M02*
