%
M48
M72
T01C0.03000
T02C0.03200
T03C0.03500
T04C0.11811
T05C0.12000
T06C0.15748
%
T01
X40500Y115000
X40500Y125000
X40500Y135000
X40500Y145000
X40500Y155000
X40500Y165000
X40500Y175000
X40500Y185000
X40500Y195000
X40500Y205000
X40500Y215000
X40500Y225000
X40500Y235000
X40500Y245000
X40500Y255000
X40500Y265000
X40500Y275000
X40500Y285000
X40500Y295000
X40500Y305000
X40500Y315000
X40500Y325000
X40500Y335000
X40500Y345000
X40500Y355000
X40500Y365000
X40500Y375000
X40500Y385000
X40500Y395000
X40500Y405000
X40500Y415000
X40500Y425000
X40500Y435000
X40500Y445000
X40500Y455000
X50500Y455000
X50500Y445000
X50500Y435000
X50500Y425000
X50500Y415000
X50500Y405000
X50500Y395000
X50500Y385000
X50500Y375000
X50500Y365000
X50500Y355000
X50500Y345000
X50500Y335000
X50500Y325000
X50500Y315000
X50500Y305000
X50500Y295000
X50500Y285000
X50500Y275000
X50500Y265000
X50500Y255000
X50500Y245000
X50500Y235000
X50500Y225000
X50500Y215000
X50500Y205000
X50500Y195000
X50500Y185000
X50500Y175000
X50500Y165000
X50500Y155000
X50500Y145000
X50500Y135000
X50500Y125000
X50500Y115000
X60500Y115000
X60500Y125000
X60500Y135000
X60500Y145000
X60500Y155000
X60500Y165000
X60500Y175000
X60500Y185000
X60500Y195000
X60500Y205000
X60500Y215000
X60500Y225000
X60500Y235000
X60500Y245000
X60500Y255000
X60500Y265000
X60500Y275000
X60500Y285000
X60500Y295000
X60500Y305000
X60500Y315000
X60500Y325000
X60500Y335000
X60500Y345000
X60500Y355000
X60500Y365000
X60500Y375000
X60500Y385000
X60500Y395000
X60500Y405000
X60500Y415000
X60500Y425000
X60500Y435000
X60500Y445000
X60500Y455000
X70500Y455000
X70500Y445000
X70500Y435000
X70500Y425000
X70500Y415000
X70500Y405000
X70500Y395000
X70500Y385000
X70500Y375000
X70500Y365000
X70500Y355000
X70500Y345000
X70500Y335000
X70500Y325000
X70500Y315000
X70500Y305000
X70500Y295000
X70500Y285000
X70500Y275000
X70500Y265000
X70500Y255000
X70500Y245000
X70500Y235000
X70500Y225000
X70500Y215000
X70500Y205000
X70500Y195000
X70500Y185000
X70500Y175000
X70500Y165000
X70500Y155000
X70500Y145000
X70500Y135000
X70500Y125000
X70500Y115000
X80500Y115000
X80500Y125000
X80500Y135000
X80500Y145000
X80500Y155000
X80500Y165000
X80500Y175000
X80500Y185000
X80500Y195000
X80500Y205000
X80500Y215000
X80500Y225000
X80500Y235000
X80500Y245000
X80500Y255000
X80500Y265000
X80500Y275000
X80500Y285000
X80500Y295000
X80500Y305000
X80500Y315000
X80500Y325000
X80500Y335000
X80500Y345000
X80500Y355000
X80500Y365000
X80500Y375000
X80500Y385000
X80500Y395000
X80500Y405000
X80500Y415000
X80500Y425000
X80500Y435000
X80500Y445000
X80500Y455000
X90500Y455000
X90500Y445000
X90500Y435000
X90500Y425000
X90500Y415000
X90500Y405000
X90500Y395000
X90500Y385000
X90500Y375000
X90500Y365000
X90500Y355000
X90500Y345000
X90500Y335000
X90500Y325000
X90500Y315000
X90500Y305000
X90500Y295000
X90500Y285000
X90500Y275000
X90500Y265000
X90500Y255000
X90500Y245000
X90500Y235000
X90500Y225000
X90500Y215000
X90500Y205000
X90500Y195000
X90500Y185000
X90500Y175000
X90500Y165000
X90500Y155000
X90500Y145000
X90500Y135000
X90500Y125000
X90500Y115000
X100500Y115000
X100500Y125000
X100500Y135000
X100500Y145000
X100500Y155000
X100500Y165000
X100500Y175000
X100500Y185000
X100500Y195000
X100500Y205000
X100500Y215000
X100500Y225000
X100500Y235000
X100500Y245000
X100500Y255000
X100500Y265000
X100500Y275000
X100500Y285000
X100500Y295000
X100500Y305000
X100500Y315000
X100500Y325000
X100500Y335000
X100500Y345000
X100500Y355000
X100500Y365000
X100500Y375000
X100500Y385000
X100500Y395000
X100500Y405000
X100500Y415000
X100500Y425000
X100500Y435000
X100500Y445000
X100500Y455000
X110500Y455000
X110500Y445000
X110500Y435000
X110500Y425000
X110500Y415000
X110500Y405000
X110500Y395000
X110500Y385000
X110500Y375000
X110500Y365000
X110500Y355000
X110500Y345000
X110500Y335000
X110500Y325000
X110500Y315000
X110500Y305000
X110500Y295000
X110500Y285000
X110500Y275000
X110500Y265000
X110500Y255000
X110500Y245000
X110500Y235000
X110500Y225000
X110500Y215000
X110500Y205000
X110500Y195000
X110500Y185000
X110500Y175000
X110500Y165000
X110500Y155000
X110500Y145000
X110500Y135000
X110500Y125000
X110500Y115000
X120500Y115000
X120500Y125000
X120500Y135000
X120500Y145000
X120500Y155000
X120500Y165000
X120500Y175000
X120500Y185000
X120500Y195000
X120500Y205000
X120500Y215000
X120500Y225000
X120500Y235000
X120500Y245000
X120500Y255000
X120500Y265000
X120500Y275000
X120500Y285000
X120500Y295000
X120500Y305000
X120500Y315000
X120500Y325000
X120500Y335000
X120500Y345000
X120500Y355000
X120500Y365000
X120500Y375000
X120500Y385000
X120500Y395000
X120500Y405000
X120500Y415000
X120500Y425000
X120500Y435000
X120500Y445000
X120500Y455000
X130500Y455000
X130500Y445000
X130500Y435000
X130500Y425000
X130500Y415000
X130500Y405000
X130500Y395000
X130500Y385000
X130500Y375000
X130500Y365000
X130500Y355000
X130500Y345000
X130500Y335000
X130500Y325000
X130500Y315000
X130500Y305000
X130500Y295000
X130500Y285000
X130500Y275000
X130500Y265000
X130500Y255000
X130500Y245000
X130500Y235000
X130500Y225000
X130500Y215000
X130500Y205000
X130500Y195000
X130500Y185000
X130500Y175000
X130500Y165000
X130500Y155000
X130500Y145000
X130500Y135000
X130500Y125000
X130500Y115000
X140500Y115000
X140500Y125000
X140500Y135000
X140500Y145000
X140500Y155000
X140500Y165000
X140500Y175000
X140500Y185000
X140500Y195000
X140500Y205000
X140500Y215000
X140500Y225000
X140500Y235000
X140500Y245000
X140500Y255000
X140500Y265000
X140500Y275000
X140500Y285000
X140500Y295000
X140500Y305000
X140500Y315000
X140500Y325000
X140500Y335000
X140500Y345000
X140500Y355000
X140500Y365000
X140500Y375000
X140500Y385000
X140500Y395000
X140500Y405000
X140500Y415000
X140500Y425000
X140500Y435000
X140500Y445000
X140500Y455000
X150500Y455000
X150500Y445000
X150500Y435000
X150500Y425000
X150500Y415000
X150500Y405000
X150500Y395000
X150500Y385000
X150500Y375000
X150500Y365000
X150500Y355000
X150500Y345000
X150500Y335000
X150500Y325000
X150500Y315000
X150500Y305000
X150500Y295000
X150500Y285000
X150500Y275000
X150500Y265000
X150500Y255000
X150500Y245000
X150500Y235000
X150500Y225000
X150500Y215000
X150500Y205000
X150500Y195000
X150500Y185000
X150500Y175000
X150500Y165000
X150500Y155000
X150500Y145000
X150500Y135000
X150500Y125000
X150500Y115000
X160500Y115000
X160500Y125000
X160500Y135000
X160500Y145000
X160500Y155000
X160500Y165000
X160500Y175000
X160500Y185000
X160500Y195000
X160500Y205000
X160500Y215000
X160500Y225000
X160500Y235000
X160500Y245000
X160500Y255000
X160500Y265000
X160500Y275000
X160500Y285000
X160500Y295000
X160500Y305000
X160500Y315000
X160500Y325000
X160500Y335000
X160500Y345000
X160500Y355000
X160500Y365000
X160500Y375000
X160500Y385000
X160500Y395000
X160500Y405000
X160500Y415000
X160500Y425000
X160500Y435000
X160500Y445000
X160500Y455000
X170500Y455000
X170500Y445000
X170500Y435000
X170500Y425000
X170500Y415000
X170500Y405000
X170500Y395000
X170500Y385000
X170500Y375000
X170500Y365000
X170500Y355000
X170500Y345000
X170500Y335000
X170500Y325000
X170500Y315000
X170500Y305000
X170500Y295000
X170500Y285000
X170500Y275000
X170500Y265000
X170500Y255000
X170500Y245000
X170500Y235000
X170500Y225000
X170500Y215000
X170500Y205000
X170500Y195000
X170500Y185000
X170500Y175000
X170500Y165000
X170500Y155000
X170500Y145000
X170500Y135000
X170500Y125000
X170500Y115000
X180500Y115000
X180500Y125000
X180500Y135000
X180500Y145000
X180500Y155000
X180500Y165000
X180500Y175000
X180500Y185000
X180500Y195000
X180500Y205000
X180500Y215000
X180500Y225000
X180500Y235000
X180500Y245000
X180500Y255000
X180500Y265000
X180500Y275000
X180500Y285000
X180500Y295000
X180500Y305000
X180500Y315000
X180500Y325000
X180500Y335000
X180500Y345000
X180500Y355000
X180500Y365000
X180500Y375000
X180500Y385000
X180500Y395000
X180500Y405000
X180500Y415000
X180500Y425000
X180500Y435000
X180500Y445000
X180500Y455000
X190500Y455000
X190500Y445000
X190500Y435000
X190500Y425000
X190500Y415000
X190500Y405000
X190500Y395000
X190500Y385000
X190500Y375000
X190500Y365000
X190500Y355000
X190500Y345000
X190500Y335000
X190500Y325000
X190500Y315000
X190500Y305000
X190500Y295000
X190500Y285000
X190500Y275000
X190500Y265000
X190500Y255000
X190500Y245000
X190500Y235000
X190500Y225000
X190500Y215000
X190500Y205000
X190500Y195000
X190500Y185000
X190500Y175000
X190500Y165000
X190500Y155000
X190500Y145000
X190500Y135000
X190500Y125000
X190500Y115000
X200500Y115000
X200500Y125000
X200500Y135000
X200500Y145000
X200500Y155000
X200500Y165000
X200500Y175000
X200500Y185000
X200500Y195000
X200500Y205000
X200500Y215000
X200500Y225000
X200500Y235000
X200500Y245000
X200500Y255000
X200500Y265000
X200500Y275000
X200500Y285000
X200500Y295000
X200500Y305000
X200500Y315000
X200500Y325000
X200500Y335000
X200500Y345000
X200500Y355000
X200500Y365000
X200500Y375000
X200500Y385000
X200500Y395000
X200500Y405000
X200500Y415000
X200500Y425000
X200500Y435000
X200500Y445000
X200500Y455000
X210500Y455000
X210500Y445000
X210500Y435000
X210500Y425000
X210500Y415000
X210500Y405000
X210500Y395000
X210500Y385000
X210500Y375000
X210500Y365000
X210500Y355000
X210500Y345000
X210500Y335000
X210500Y325000
X210500Y315000
X210500Y305000
X210500Y295000
X210500Y285000
X210500Y275000
X210500Y265000
X210500Y255000
X210500Y245000
X210500Y235000
X210500Y225000
X210500Y215000
X210500Y205000
X210500Y195000
X210500Y185000
X210500Y175000
X210500Y165000
X210500Y155000
X210500Y145000
X210500Y135000
X210500Y125000
X210500Y115000
X220500Y115000
X220500Y125000
X220500Y135000
X220500Y145000
X220500Y155000
X220500Y165000
X220500Y175000
X220500Y185000
X220500Y195000
X220500Y205000
X220500Y215000
X220500Y225000
X220500Y235000
X220500Y245000
X220500Y255000
X220500Y265000
X220500Y275000
X220500Y285000
X220500Y295000
X220500Y305000
X220500Y315000
X220500Y325000
X220500Y335000
X220500Y345000
X220500Y355000
X220500Y365000
X220500Y375000
X220500Y385000
X220500Y395000
X220500Y405000
X220500Y415000
X220500Y425000
X220500Y435000
X220500Y445000
X220500Y455000
X230500Y455000
X230500Y445000
X230500Y435000
X230500Y425000
X230500Y415000
X230500Y405000
X230500Y395000
X230500Y385000
X230500Y375000
X230500Y365000
X230500Y355000
X230500Y345000
X230500Y335000
X230500Y325000
X230500Y315000
X230500Y305000
X230500Y295000
X230500Y285000
X230500Y275000
X230500Y265000
X230500Y255000
X230500Y245000
X230500Y235000
X230500Y225000
X230500Y215000
X230500Y205000
X230500Y195000
X230500Y185000
X230500Y175000
X230500Y165000
X230500Y155000
X230500Y145000
X230500Y135000
X230500Y125000
X230500Y115000
X240500Y115000
X240500Y125000
X240500Y135000
X240500Y145000
X240500Y155000
X240500Y165000
X240500Y175000
X240500Y185000
X240500Y195000
X240500Y205000
X240500Y215000
X240500Y225000
X240500Y235000
X240500Y245000
X240500Y255000
X240500Y265000
X240500Y275000
X240500Y285000
X240500Y295000
X240500Y305000
X240500Y315000
X240500Y325000
X240500Y335000
X240500Y345000
X240500Y355000
X240500Y365000
X240500Y375000
X240500Y385000
X240500Y395000
X240500Y405000
X240500Y415000
X240500Y425000
X240500Y435000
X240500Y445000
X240500Y455000
X250500Y455000
X250500Y445000
X250500Y435000
X250500Y425000
X250500Y415000
X250500Y405000
X250500Y395000
X250500Y385000
X250500Y375000
X250500Y365000
X250500Y355000
X250500Y345000
X250500Y335000
X250500Y325000
X250500Y315000
X250500Y305000
X250500Y295000
X250500Y285000
X250500Y275000
X250500Y265000
X250500Y255000
X250500Y245000
X250500Y235000
X250500Y225000
X250500Y215000
X250500Y205000
X250500Y195000
X250500Y185000
X250500Y175000
X250500Y165000
X250500Y155000
X250500Y145000
X250500Y135000
X250500Y125000
X250500Y115000
X260500Y115000
X260500Y125000
X260500Y135000
X260500Y145000
X260500Y155000
X260500Y165000
X260500Y175000
X260500Y185000
X260500Y195000
X260500Y205000
X260500Y215000
X260500Y225000
X260500Y235000
X260500Y245000
X260500Y255000
X260500Y265000
X260500Y275000
X260500Y285000
X260500Y295000
X260500Y305000
X260500Y315000
X260500Y325000
X260500Y335000
X260500Y345000
X260500Y355000
X260500Y365000
X260500Y375000
X260500Y385000
X260500Y395000
X260500Y405000
X260500Y415000
X260500Y425000
X260500Y435000
X260500Y445000
X260500Y455000
X270500Y455000
X270500Y445000
X270500Y435000
X270500Y425000
X270500Y415000
X270500Y405000
X270500Y395000
X270500Y385000
X270500Y375000
X270500Y365000
X270500Y355000
X270500Y345000
X270500Y335000
X270500Y325000
X270500Y315000
X270500Y305000
X270500Y295000
X270500Y285000
X270500Y275000
X270500Y265000
X270500Y255000
X270500Y245000
X270500Y235000
X270500Y225000
X270500Y215000
X270500Y205000
X270500Y195000
X270500Y185000
X270500Y175000
X270500Y165000
X270500Y155000
X270500Y145000
X270500Y135000
X270500Y125000
X270500Y115000
X280500Y115000
X280500Y125000
X280500Y135000
X280500Y145000
X280500Y155000
X280500Y165000
X280500Y175000
X280500Y185000
X280500Y195000
X280500Y205000
X280500Y215000
X280500Y225000
X280500Y235000
X280500Y245000
X280500Y255000
X280500Y265000
X280500Y275000
X280500Y285000
X280500Y295000
X280500Y305000
X280500Y315000
X280500Y325000
X280500Y335000
X280500Y345000
X280500Y355000
X280500Y365000
X280500Y375000
X280500Y385000
X280500Y395000
X280500Y405000
X280500Y415000
X280500Y425000
X280500Y435000
X280500Y445000
X280500Y455000
X290500Y455000
X290500Y445000
X290500Y435000
X290500Y425000
X290500Y415000
X290500Y405000
X290500Y395000
X290500Y385000
X290500Y375000
X290500Y365000
X290500Y355000
X290500Y345000
X290500Y335000
X290500Y325000
X290500Y315000
X290500Y305000
X290500Y295000
X290500Y285000
X290500Y275000
X290500Y265000
X290500Y255000
X290500Y245000
X290500Y235000
X290500Y225000
X290500Y215000
X290500Y205000
X290500Y195000
X290500Y185000
X290500Y175000
X290500Y165000
X290500Y155000
X290500Y145000
X290500Y135000
X290500Y125000
X290500Y115000
X300500Y115000
X300500Y125000
X300500Y135000
X300500Y145000
X300500Y155000
X300500Y165000
X300500Y175000
X300500Y185000
X300500Y195000
X300500Y205000
X300500Y215000
X300500Y225000
X300500Y235000
X300500Y245000
X300500Y255000
X300500Y265000
X300500Y275000
X300500Y285000
X300500Y295000
X300500Y305000
X300500Y315000
X300500Y325000
X300500Y335000
X300500Y345000
X300500Y355000
X300500Y365000
X300500Y375000
X300500Y385000
X300500Y395000
X300500Y405000
X300500Y415000
X300500Y425000
X300500Y435000
X300500Y445000
X300500Y455000
X310500Y455000
X310500Y445000
X310500Y435000
X310500Y425000
X310500Y415000
X310500Y405000
X310500Y395000
X310500Y385000
X310500Y375000
X310500Y365000
X310500Y355000
X310500Y345000
X310500Y335000
X310500Y325000
X310500Y315000
X310500Y305000
X310500Y295000
X310500Y285000
X310500Y275000
X310500Y265000
X310500Y255000
X310500Y245000
X310500Y235000
X310500Y225000
X310500Y215000
X310500Y205000
X310500Y195000
X310500Y185000
X310500Y175000
X310500Y165000
X310500Y155000
X310500Y145000
X310500Y135000
X310500Y125000
X310500Y115000
X320500Y115000
X320500Y125000
X320500Y135000
X320500Y145000
X320500Y155000
X320500Y165000
X320500Y175000
X320500Y185000
X320500Y195000
X320500Y205000
X320500Y215000
X320500Y225000
X320500Y235000
X320500Y245000
X320500Y255000
X320500Y265000
X320500Y275000
X320500Y285000
X320500Y295000
X320500Y305000
X320500Y315000
X320500Y325000
X320500Y335000
X320500Y345000
X320500Y355000
X320500Y365000
X320500Y375000
X320500Y385000
X320500Y395000
X320500Y405000
X320500Y415000
X320500Y425000
X320500Y435000
X320500Y445000
X320500Y455000
X330500Y455000
X330500Y445000
X330500Y435000
X330500Y425000
X330500Y415000
X330500Y405000
X330500Y395000
X330500Y385000
X330500Y375000
X330500Y365000
X330500Y355000
X330500Y345000
X330500Y335000
X330500Y325000
X330500Y315000
X330500Y305000
X330500Y295000
X330500Y285000
X330500Y275000
X330500Y265000
X330500Y255000
X330500Y245000
X330500Y235000
X330500Y225000
X330500Y215000
X330500Y205000
X330500Y195000
X330500Y185000
X330500Y175000
X330500Y165000
X330500Y155000
X330500Y145000
X330500Y135000
X330500Y125000
X330500Y115000
X340500Y115000
X340500Y125000
X340500Y135000
X340500Y145000
X340500Y155000
X340500Y165000
X340500Y175000
X340500Y185000
X340500Y195000
X340500Y205000
X340500Y215000
X340500Y225000
X340500Y235000
X340500Y245000
X340500Y255000
X340500Y265000
X340500Y275000
X340500Y285000
X340500Y295000
X340500Y305000
X340500Y315000
X340500Y325000
X340500Y335000
X340500Y345000
X340500Y355000
X340500Y365000
X340500Y375000
X340500Y385000
X340500Y395000
X340500Y405000
X340500Y415000
X340500Y425000
X340500Y435000
X340500Y445000
X340500Y455000
X350500Y455000
X350500Y445000
X350500Y435000
X350500Y425000
X350500Y415000
X350500Y405000
X350500Y395000
X350500Y385000
X350500Y375000
X350500Y365000
X350500Y355000
X350500Y345000
X350500Y335000
X350500Y325000
X350500Y315000
X350500Y305000
X350500Y295000
X350500Y285000
X350500Y275000
X350500Y265000
X350500Y255000
X350500Y245000
X350500Y235000
X350500Y225000
X350500Y215000
X350500Y205000
X350500Y195000
X350500Y185000
X350500Y175000
X350500Y165000
X350500Y155000
X350500Y145000
X350500Y135000
X350500Y125000
X350500Y115000
X360500Y115000
X360500Y125000
X360500Y135000
X360500Y145000
X360500Y155000
X360500Y165000
X360500Y175000
X360500Y185000
X360500Y195000
X360500Y205000
X360500Y215000
X360500Y225000
X360500Y235000
X360500Y245000
X360500Y255000
X360500Y265000
X360500Y275000
X360500Y285000
X360500Y295000
X360500Y305000
X360500Y315000
X360500Y325000
X360500Y335000
X360500Y345000
X360500Y355000
X360500Y365000
X360500Y375000
X360500Y385000
X360500Y395000
X360500Y405000
X360500Y415000
X360500Y425000
X360500Y435000
X360500Y445000
X360500Y455000
X370500Y455000
X370500Y445000
X370500Y435000
X370500Y425000
X370500Y415000
X370500Y405000
X370500Y395000
X370500Y385000
X370500Y375000
X370500Y365000
X370500Y355000
X370500Y345000
X370500Y335000
X370500Y325000
X370500Y315000
X370500Y305000
X370500Y295000
X370500Y285000
X370500Y275000
X370500Y265000
X370500Y255000
X370500Y245000
X370500Y235000
X370500Y225000
X370500Y215000
X370500Y205000
X370500Y195000
X370500Y185000
X370500Y175000
X370500Y165000
X370500Y155000
X370500Y145000
X370500Y135000
X370500Y125000
X370500Y115000
X380500Y115000
X380500Y125000
X380500Y135000
X380500Y145000
X380500Y155000
X380500Y165000
X380500Y175000
X380500Y185000
X380500Y195000
X380500Y205000
X380500Y215000
X380500Y225000
X380500Y235000
X380500Y245000
X380500Y255000
X380500Y265000
X380500Y275000
X380500Y285000
X380500Y295000
X380500Y305000
X380500Y315000
X380500Y325000
X380500Y335000
X380500Y345000
X380500Y355000
X380500Y365000
X380500Y375000
X380500Y385000
X380500Y395000
X380500Y405000
X380500Y415000
X380500Y425000
X380500Y435000
X380500Y445000
X380500Y455000
T02
X350500Y85000
X340500Y85000
X330500Y85000
X320500Y85000
X310500Y85000
X300500Y85000
X290500Y85000
X280500Y85000
X270500Y85000
X260500Y85000
X250500Y85000
X240500Y85000
X230500Y85000
X220500Y85000
X210500Y85000
X200500Y85000
X190500Y85000
X180500Y85000
X170500Y85000
X160500Y85000
X150500Y85000
X140500Y85000
X130500Y85000
X120500Y85000
X110500Y85000
X110500Y65000
X120500Y65000
X130500Y65000
X140500Y65000
X150500Y65000
X160500Y65000
X170500Y65000
X180500Y65000
X190500Y65000
X200500Y65000
X210500Y65000
X220500Y65000
X230500Y65000
X240500Y65000
X250500Y65000
X260500Y65000
X270500Y65000
X280500Y65000
X290500Y65000
X300500Y65000
X310500Y65000
X320500Y65000
X330500Y65000
X340500Y65000
X350500Y65000
T03
X390500Y115000
X390500Y125000
X390500Y135000
X390500Y145000
X390500Y155000
X390500Y165000
X390500Y175000
X390500Y185000
X390500Y195000
X390500Y205000
X390500Y215000
X390500Y225000
X390500Y235000
X390500Y245000
X390500Y255000
X390500Y265000
X390500Y275000
X390500Y285000
X390500Y295000
X390500Y305000
X390500Y315000
X390500Y325000
X390500Y335000
X390500Y345000
X390500Y355000
X390500Y365000
X390500Y375000
X390500Y385000
X390500Y395000
X390500Y405000
X390500Y415000
X390500Y425000
X390500Y435000
X390500Y445000
X390500Y455000
X30500Y455000
X30500Y445000
X30500Y435000
X30500Y425000
X30500Y415000
X30500Y405000
X30500Y395000
X30500Y385000
X30500Y375000
X30500Y365000
X30500Y355000
X30500Y345000
X30500Y335000
X30500Y325000
X30500Y315000
X30500Y305000
X30500Y295000
X30500Y285000
X30500Y275000
X30500Y265000
X30500Y255000
X30500Y245000
X30500Y235000
X30500Y225000
X30500Y215000
X30500Y205000
X30500Y195000
X30500Y185000
X30500Y175000
X30500Y165000
X30500Y155000
X30500Y145000
X30500Y135000
X30500Y125000
X30500Y115000
T04
X391469Y471535
T05
X71469Y93031
X391469Y93031
T06
X345146Y471535
X34122Y471535
M30
